<svg id="render" xmlns="http://www.w3.org/2000/svg" viewBox="0 0 271.23 282.7"><defs><style>.cls-1{fill:#edfcfd;}.cls-1,.cls-2,.cls-3,.cls-4,.cls-5{stroke:#000;stroke-miterlimit:10;}.cls-2{fill:#85bbe5;}.cls-2,.cls-3,.cls-4,.cls-5{stroke-linecap:round;}.cls-3{fill:#e6e6e6;}.cls-4{fill:#89cccf;}.cls-5{fill:none;}</style></defs><rect class="cls-1" x="0.5" y="0.5" width="270.23" height="281.7" rx="3"/><rect class="cls-2" x="73.21" y="42.85" width="50.46" height="15.57" rx="3"/><path d="M291.92,222.39V213.8h1.13v7.58h4.23v1Z" transform="translate(-209.27 -167.23)"/><path d="M298.51,215V213.8h1.05V215Zm0,7.37v-6.22h1.05v6.22Z" transform="translate(-209.27 -167.23)"/><path d="M301.17,222.39v-6.22h.95v.89a2.21,2.21,0,0,1,2-1,2.66,2.66,0,0,1,1,.2,1.66,1.66,0,0,1,.71.53,2.3,2.3,0,0,1,.33.78,7.71,7.71,0,0,1,.05,1v3.82h-1.05v-3.78a2.87,2.87,0,0,0-.12-1,1,1,0,0,0-.44-.51,1.36,1.36,0,0,0-.74-.2,1.75,1.75,0,0,0-1.16.43,2.16,2.16,0,0,0-.49,1.63v3.39Z" transform="translate(-209.27 -167.23)"/><path d="M312.1,220.39l1.09.13a2.67,2.67,0,0,1-.95,1.49,2.9,2.9,0,0,1-1.79.52,2.83,2.83,0,0,1-2.16-.84,3.28,3.28,0,0,1-.8-2.35,3.44,3.44,0,0,1,.81-2.44,2.74,2.74,0,0,1,2.1-.87,2.66,2.66,0,0,1,2,.85,3.41,3.41,0,0,1,.79,2.39c0,.06,0,.16,0,.28h-4.64a2.36,2.36,0,0,0,.58,1.57,1.71,1.71,0,0,0,1.3.55,1.56,1.56,0,0,0,1-.31A2,2,0,0,0,312.1,220.39Zm-3.46-1.7h3.47a2,2,0,0,0-.4-1.18,1.59,1.59,0,0,0-1.3-.61,1.67,1.67,0,0,0-1.22.48A1.92,1.92,0,0,0,308.64,218.69Z" transform="translate(-209.27 -167.23)"/><path d="M318.58,221.63a4,4,0,0,1-1.13.7,3.2,3.2,0,0,1-1.17.2,2.23,2.23,0,0,1-1.57-.5,1.64,1.64,0,0,1-.55-1.28,1.77,1.77,0,0,1,.75-1.44,2.49,2.49,0,0,1,.76-.34,6.55,6.55,0,0,1,.94-.16,8.77,8.77,0,0,0,1.88-.37v-.27a1.17,1.17,0,0,0-.3-.91,1.74,1.74,0,0,0-1.2-.36,1.86,1.86,0,0,0-1.09.26,1.61,1.61,0,0,0-.53.93l-1-.14a2.57,2.57,0,0,1,.46-1.07,2.13,2.13,0,0,1,.93-.63,4.11,4.11,0,0,1,1.42-.22,3.58,3.58,0,0,1,1.29.19,1.62,1.62,0,0,1,.73.47,1.6,1.6,0,0,1,.33.72,5.46,5.46,0,0,1,.05,1v1.41a15.8,15.8,0,0,0,.07,1.86,2.44,2.44,0,0,0,.27.74h-1.1A2.12,2.12,0,0,1,318.58,221.63Zm-.09-2.36a7.7,7.7,0,0,1-1.72.4,3.59,3.59,0,0,0-.92.21,1,1,0,0,0-.42.34.89.89,0,0,0-.15.5.91.91,0,0,0,.32.71,1.42,1.42,0,0,0,.94.28,2.16,2.16,0,0,0,1.08-.27,1.64,1.64,0,0,0,.7-.73,2.6,2.6,0,0,0,.17-1.05Z" transform="translate(-209.27 -167.23)"/><path d="M321.18,222.39v-6.22h.95v.94a2.48,2.48,0,0,1,.67-.87,1.16,1.16,0,0,1,.67-.21,2,2,0,0,1,1.09.34l-.37,1a1.49,1.49,0,0,0-.77-.23,1,1,0,0,0-.62.21,1.15,1.15,0,0,0-.39.58,4,4,0,0,0-.18,1.23v3.25Z" transform="translate(-209.27 -167.23)"/><rect class="cls-2" x="73.21" y="236.63" width="50.46" height="15.57" rx="3"/><path d="M291.92,416.18v-8.59h1.13v7.57h4.23v1Z" transform="translate(-209.27 -167.23)"/><path d="M298.51,408.8v-1.21h1.05v1.21Zm0,7.38V410h1.05v6.22Z" transform="translate(-209.27 -167.23)"/><path d="M301.17,416.18V410h.95v.88a2.23,2.23,0,0,1,2-1,2.5,2.5,0,0,1,1,.21,1.58,1.58,0,0,1,.71.53,2.3,2.3,0,0,1,.33.78,7.42,7.42,0,0,1,.05,1v3.83h-1.05v-3.79a2.87,2.87,0,0,0-.12-1,1.08,1.08,0,0,0-.44-.51,1.36,1.36,0,0,0-.74-.19,1.7,1.7,0,0,0-1.16.43,2.11,2.11,0,0,0-.49,1.62v3.4Z" transform="translate(-209.27 -167.23)"/><path d="M312.1,414.17l1.09.14a2.64,2.64,0,0,1-.95,1.48,2.9,2.9,0,0,1-1.79.53,2.83,2.83,0,0,1-2.16-.84,3.31,3.31,0,0,1-.8-2.36,3.44,3.44,0,0,1,.81-2.44,2.74,2.74,0,0,1,2.1-.87,2.69,2.69,0,0,1,2,.85,3.43,3.43,0,0,1,.79,2.39c0,.07,0,.16,0,.29h-4.64a2.4,2.4,0,0,0,.58,1.57,1.74,1.74,0,0,0,1.3.54,1.62,1.62,0,0,0,1-.3A2.08,2.08,0,0,0,312.1,414.17Zm-3.46-1.7h3.47a2.06,2.06,0,0,0-.4-1.18,1.59,1.59,0,0,0-1.3-.61,1.64,1.64,0,0,0-1.22.49A1.9,1.9,0,0,0,308.64,412.47Z" transform="translate(-209.27 -167.23)"/><path d="M318.58,415.41a3.83,3.83,0,0,1-1.13.7,3.2,3.2,0,0,1-1.17.21,2.28,2.28,0,0,1-1.57-.5,1.65,1.65,0,0,1-.55-1.28,1.69,1.69,0,0,1,.21-.84,1.65,1.65,0,0,1,.54-.6,2.51,2.51,0,0,1,.76-.35,8.38,8.38,0,0,1,.94-.16,9.59,9.59,0,0,0,1.88-.36V412a1.17,1.17,0,0,0-.3-.91,2.31,2.31,0,0,0-2.29-.09,1.54,1.54,0,0,0-.53.92l-1-.14a2.57,2.57,0,0,1,.46-1.07,2.13,2.13,0,0,1,.93-.63,4.37,4.37,0,0,1,1.42-.22,3.82,3.82,0,0,1,1.29.19,1.71,1.71,0,0,1,.73.47,1.6,1.6,0,0,1,.33.72,5.53,5.53,0,0,1,.05,1v1.41a15.8,15.8,0,0,0,.07,1.86,2.6,2.6,0,0,0,.27.75h-1.1A2.23,2.23,0,0,1,318.58,415.41Zm-.09-2.36a7.7,7.7,0,0,1-1.72.4,4.74,4.74,0,0,0-.92.21,1,1,0,0,0-.42.35.87.87,0,0,0-.15.5.91.91,0,0,0,.32.7,1.37,1.37,0,0,0,.94.28,2.27,2.27,0,0,0,1.08-.26,1.69,1.69,0,0,0,.7-.73,2.62,2.62,0,0,0,.17-1.06Z" transform="translate(-209.27 -167.23)"/><path d="M321.18,416.18V410h.95v.94a2.48,2.48,0,0,1,.67-.87,1.1,1.1,0,0,1,.67-.22,2.13,2.13,0,0,1,1.09.34l-.37,1a1.49,1.49,0,0,0-.77-.23,1,1,0,0,0-.62.21,1.15,1.15,0,0,0-.39.58,4,4,0,0,0-.18,1.23v3.26Z" transform="translate(-209.27 -167.23)"/><rect class="cls-2" x="135.93" y="42.85" width="50.46" height="15.57" rx="3"/><path d="M354.63,222.39V213.8h1.14v7.58H360v1Z" transform="translate(-209.27 -167.23)"/><path d="M361.22,215V213.8h1.06V215Zm0,7.37v-6.22h1.06v6.22Z" transform="translate(-209.27 -167.23)"/><path d="M363.88,222.39v-6.22h.95v.89a2.23,2.23,0,0,1,2-1,2.71,2.71,0,0,1,1,.2,1.63,1.63,0,0,1,.7.53,2,2,0,0,1,.33.78,6,6,0,0,1,.06,1v3.82h-1.06v-3.78a2.87,2.87,0,0,0-.12-1,1,1,0,0,0-.44-.51,1.35,1.35,0,0,0-.73-.2,1.72,1.72,0,0,0-1.16.43,2.12,2.12,0,0,0-.49,1.63v3.39Z" transform="translate(-209.27 -167.23)"/><path d="M374.81,220.39l1.09.13A2.67,2.67,0,0,1,375,222a3.26,3.26,0,0,1-3.95-.32,3.28,3.28,0,0,1-.8-2.35,3.44,3.44,0,0,1,.81-2.44,2.74,2.74,0,0,1,2.1-.87,2.66,2.66,0,0,1,2,.85,3.36,3.36,0,0,1,.79,2.39c0,.06,0,.16,0,.28h-4.64a2.41,2.41,0,0,0,.58,1.57,1.71,1.71,0,0,0,1.3.55,1.56,1.56,0,0,0,1-.31A1.93,1.93,0,0,0,374.81,220.39Zm-3.46-1.7h3.48a2.11,2.11,0,0,0-.4-1.18,1.61,1.61,0,0,0-1.31-.61,1.69,1.69,0,0,0-1.22.48A2,2,0,0,0,371.35,218.69Z" transform="translate(-209.27 -167.23)"/><path d="M381.29,221.63a4,4,0,0,1-1.13.7,3.18,3.18,0,0,1-1.16.2,2.24,2.24,0,0,1-1.58-.5,1.76,1.76,0,0,1-.34-2.11,1.78,1.78,0,0,1,.54-.61,2.49,2.49,0,0,1,.76-.34,6.55,6.55,0,0,1,.94-.16,8.77,8.77,0,0,0,1.88-.37c0-.14,0-.23,0-.27a1.17,1.17,0,0,0-.3-.91,1.76,1.76,0,0,0-1.2-.36,1.9,1.9,0,0,0-1.1.26,1.66,1.66,0,0,0-.53.93l-1-.14a2.58,2.58,0,0,1,.47-1.07,2,2,0,0,1,.93-.63,4,4,0,0,1,1.41-.22,3.58,3.58,0,0,1,1.29.19,1.66,1.66,0,0,1,.74.47,1.84,1.84,0,0,1,.33.72,6.67,6.67,0,0,1,0,1v1.41a13.75,13.75,0,0,0,.07,1.86,2.18,2.18,0,0,0,.26.74h-1.1A2.12,2.12,0,0,1,381.29,221.63Zm-.09-2.36a7.56,7.56,0,0,1-1.72.4,3.82,3.82,0,0,0-.92.21,1,1,0,0,0-.42.34,1,1,0,0,0-.14.5.88.88,0,0,0,.32.71,1.4,1.4,0,0,0,.93.28,2.11,2.11,0,0,0,1.08-.27,1.64,1.64,0,0,0,.7-.73,2.44,2.44,0,0,0,.17-1.05Z" transform="translate(-209.27 -167.23)"/><path d="M383.89,222.39v-6.22h.95v.94a2.6,2.6,0,0,1,.67-.87,1.19,1.19,0,0,1,.68-.21,2,2,0,0,1,1.08.34l-.36,1a1.55,1.55,0,0,0-.77-.23,1,1,0,0,0-.63.21,1.15,1.15,0,0,0-.39.58,4,4,0,0,0-.17,1.23v3.25Z" transform="translate(-209.27 -167.23)"/><rect class="cls-2" x="10.5" y="42.85" width="50.46" height="15.57" rx="3"/><path d="M229.2,222.39V213.8h1.14v7.58h4.23v1Z" transform="translate(-209.27 -167.23)"/><path d="M235.79,215V213.8h1.06V215Zm0,7.37v-6.22h1.06v6.22Z" transform="translate(-209.27 -167.23)"/><path d="M238.45,222.39v-6.22h1v.89a2.23,2.23,0,0,1,2-1,2.71,2.71,0,0,1,1,.2,1.63,1.63,0,0,1,.7.53,2,2,0,0,1,.33.78,6,6,0,0,1,.06,1v3.82h-1v-3.78a2.82,2.82,0,0,0-.13-1,1,1,0,0,0-.43-.51,1.39,1.39,0,0,0-.74-.2,1.72,1.72,0,0,0-1.16.43,2.12,2.12,0,0,0-.49,1.63v3.39Z" transform="translate(-209.27 -167.23)"/><path d="M249.39,220.39l1.09.13a2.68,2.68,0,0,1-1,1.49,2.87,2.87,0,0,1-1.78.52,2.83,2.83,0,0,1-2.16-.84,3.24,3.24,0,0,1-.8-2.35,3.44,3.44,0,0,1,.8-2.44,2.74,2.74,0,0,1,2.1-.87,2.66,2.66,0,0,1,2,.85,3.36,3.36,0,0,1,.79,2.39v.28h-4.64a2.31,2.31,0,0,0,.58,1.57,1.69,1.69,0,0,0,1.3.55,1.6,1.6,0,0,0,1-.31A2,2,0,0,0,249.39,220.39Zm-3.47-1.7h3.48a2.11,2.11,0,0,0-.4-1.18,1.61,1.61,0,0,0-1.31-.61,1.69,1.69,0,0,0-1.22.48A2,2,0,0,0,245.92,218.69Z" transform="translate(-209.27 -167.23)"/><path d="M255.86,221.63a4,4,0,0,1-1.13.7,3.18,3.18,0,0,1-1.16.2A2.25,2.25,0,0,1,252,222a1.76,1.76,0,0,1-.34-2.11,1.71,1.71,0,0,1,.55-.61A2.29,2.29,0,0,1,253,219a6.12,6.12,0,0,1,.93-.16,8.77,8.77,0,0,0,1.88-.37c0-.14,0-.23,0-.27a1.17,1.17,0,0,0-.3-.91,1.76,1.76,0,0,0-1.2-.36,1.9,1.9,0,0,0-1.1.26,1.6,1.6,0,0,0-.52.93l-1-.14a2.58,2.58,0,0,1,.47-1.07,2,2,0,0,1,.93-.63,4.09,4.09,0,0,1,1.41-.22,3.68,3.68,0,0,1,1.3.19,1.68,1.68,0,0,1,.73.47,1.71,1.71,0,0,1,.33.72,6.67,6.67,0,0,1,0,1v1.41a13.75,13.75,0,0,0,.07,1.86,2.18,2.18,0,0,0,.26.74h-1.1A2.12,2.12,0,0,1,255.86,221.63Zm-.09-2.36a7.43,7.43,0,0,1-1.72.4,3.82,3.82,0,0,0-.92.21,1,1,0,0,0-.42.34,1,1,0,0,0-.14.5.88.88,0,0,0,.32.71,1.4,1.4,0,0,0,.93.28,2.18,2.18,0,0,0,1.09-.27,1.62,1.62,0,0,0,.69-.73,2.44,2.44,0,0,0,.17-1.05Z" transform="translate(-209.27 -167.23)"/><path d="M258.46,222.39v-6.22h1v.94a2.6,2.6,0,0,1,.67-.87,1.19,1.19,0,0,1,.68-.21,2,2,0,0,1,1.08.34l-.36,1a1.55,1.55,0,0,0-.77-.23,1,1,0,0,0-.62.21,1.11,1.11,0,0,0-.4.58,4.3,4.3,0,0,0-.17,1.23v3.25Z" transform="translate(-209.27 -167.23)"/><g id="add"><circle class="cls-3" cx="129.8" cy="76.8" r="6.13"/><line class="cls-3" x1="126.85" y1="73.85" x2="132.91" y2="79.92"/><line class="cls-3" x1="132.83" y1="73.77" x2="126.77" y2="79.84"/></g><g id="add-2" data-name="add"><circle class="cls-3" cx="98.52" cy="218.25" r="6.13"/><line class="cls-3" x1="95.57" y1="215.29" x2="101.63" y2="221.36"/><line class="cls-3" x1="101.56" y1="215.22" x2="95.49" y2="221.28"/></g><rect class="cls-4" x="104.65" y="156.47" width="50.46" height="15.57" rx="3"/><path d="M317.68,333.26l1.08-.1a2.33,2.33,0,0,0,.35,1.06,2,2,0,0,0,.86.67,3.27,3.27,0,0,0,1.32.25,3.12,3.12,0,0,0,1.15-.19,1.63,1.63,0,0,0,.74-.53,1.27,1.27,0,0,0,.25-.74,1.08,1.08,0,0,0-.24-.7,1.78,1.78,0,0,0-.77-.51,15,15,0,0,0-1.53-.42,8.53,8.53,0,0,1-1.66-.53,2.44,2.44,0,0,1-.92-.8,2,2,0,0,1-.3-1.07,2.16,2.16,0,0,1,.37-1.22,2.34,2.34,0,0,1,1.08-.86,4.18,4.18,0,0,1,1.57-.29,4.25,4.25,0,0,1,1.69.31,2.35,2.35,0,0,1,1.12.9,2.63,2.63,0,0,1,.42,1.36l-1.09.08a1.72,1.72,0,0,0-.59-1.23,2.31,2.31,0,0,0-1.5-.42,2.39,2.39,0,0,0-1.5.38,1.11,1.11,0,0,0-.47.91,1,1,0,0,0,.33.76,4.55,4.55,0,0,0,1.71.61,12.23,12.23,0,0,1,1.91.55,2.49,2.49,0,0,1,1.1.88,2.11,2.11,0,0,1,.36,1.22,2.32,2.32,0,0,1-.39,1.29,2.51,2.51,0,0,1-1.13.94,3.84,3.84,0,0,1-1.65.34,4.92,4.92,0,0,1-2-.34,2.77,2.77,0,0,1-1.24-1A3,3,0,0,1,317.68,333.26Z" transform="translate(-209.27 -167.23)"/><path d="M325.55,332.9a3.22,3.22,0,0,1,1-2.56,2.87,2.87,0,0,1,1.95-.69,2.79,2.79,0,0,1,2.1.84,3.23,3.23,0,0,1,.82,2.33,4.13,4.13,0,0,1-.36,1.89,2.55,2.55,0,0,1-1,1.06,3,3,0,0,1-1.51.39,2.79,2.79,0,0,1-2.11-.84A3.35,3.35,0,0,1,325.55,332.9Zm1.08,0a2.62,2.62,0,0,0,.52,1.79,1.73,1.73,0,0,0,2.62,0,2.69,2.69,0,0,0,.52-1.82,2.58,2.58,0,0,0-.52-1.75,1.73,1.73,0,0,0-2.62,0A2.61,2.61,0,0,0,326.63,332.9Z" transform="translate(-209.27 -167.23)"/><path d="M332.86,336v-5.41h-.93v-.82h.93v-.66a2.67,2.67,0,0,1,.12-.93,1.39,1.39,0,0,1,.53-.67,2,2,0,0,1,1.08-.25,5.17,5.17,0,0,1,1,.1l-.16.92a4.56,4.56,0,0,0-.62-.05.92.92,0,0,0-.68.2,1.13,1.13,0,0,0-.2.77v.57h1.22v.82h-1.22V336Z" transform="translate(-209.27 -167.23)"/><path d="M338.25,335.07l.15.93a3.49,3.49,0,0,1-.8.1,1.85,1.85,0,0,1-.89-.18,1,1,0,0,1-.44-.48,3.67,3.67,0,0,1-.13-1.25v-3.58h-.77v-.82h.77v-1.54l1.05-.63v2.17h1.06v.82h-1.06v3.64a2.15,2.15,0,0,0,.05.58.43.43,0,0,0,.19.21.7.7,0,0,0,.36.07A3,3,0,0,0,338.25,335.07Z" transform="translate(-209.27 -167.23)"/><path d="M339.28,336v-6.23h.94v.88a2.3,2.3,0,0,1,.78-.74,2.18,2.18,0,0,1,1.11-.28,2,2,0,0,1,1.13.29,1.52,1.52,0,0,1,.63.8,2.24,2.24,0,0,1,1.92-1.09,1.88,1.88,0,0,1,1.42.51,2.17,2.17,0,0,1,.5,1.58V336h-1V332.1a2.9,2.9,0,0,0-.1-.92.88.88,0,0,0-.37-.44,1.1,1.1,0,0,0-.63-.17,1.47,1.47,0,0,0-1.09.43,1.93,1.93,0,0,0-.44,1.4V336h-1v-4a1.76,1.76,0,0,0-.26-1.05,1,1,0,0,0-.84-.35,1.53,1.53,0,0,0-.83.23,1.34,1.34,0,0,0-.54.69,3.67,3.67,0,0,0-.17,1.3V336Z" transform="translate(-209.27 -167.23)"/><path d="M353.34,335.25a4,4,0,0,1-1.13.7,3.19,3.19,0,0,1-1.16.21,2.24,2.24,0,0,1-1.58-.51,1.64,1.64,0,0,1-.55-1.28,1.68,1.68,0,0,1,.21-.83,1.87,1.87,0,0,1,.54-.61,2.76,2.76,0,0,1,.76-.34,6.55,6.55,0,0,1,.94-.16,9.59,9.59,0,0,0,1.88-.36c0-.15,0-.24,0-.28a1.17,1.17,0,0,0-.3-.91,1.76,1.76,0,0,0-1.2-.36,1.8,1.8,0,0,0-1.1.27,1.6,1.6,0,0,0-.53.92l-1-.14a2.57,2.57,0,0,1,.46-1.07,2.11,2.11,0,0,1,.94-.63,4.26,4.26,0,0,1,1.41-.22,3.58,3.58,0,0,1,1.29.19,1.44,1.44,0,0,1,1.06,1.19,5.19,5.19,0,0,1,.06,1v1.41a16.75,16.75,0,0,0,.06,1.86,2.6,2.6,0,0,0,.27.75h-1.1A2.23,2.23,0,0,1,353.34,335.25Zm-.09-2.36a7.56,7.56,0,0,1-1.72.4,3.7,3.7,0,0,0-.92.21,1,1,0,0,0-.42.34.93.93,0,0,0,.17,1.21,1.39,1.39,0,0,0,.94.28,2.14,2.14,0,0,0,1.08-.27,1.59,1.59,0,0,0,.7-.73,2.57,2.57,0,0,0,.17-1.05Z" transform="translate(-209.27 -167.23)"/><path d="M355.25,336l2.27-3.24-2.1-3h1.32l.95,1.46c.18.28.33.51.43.7.18-.26.33-.49.48-.69l1-1.47h1.26l-2.15,2.93,2.31,3.3h-1.29l-1.28-1.94-.34-.52L356.52,336Z" transform="translate(-209.27 -167.23)"/><path class="cls-5" d="M307.72,225.65v15.46a3,3,0,0,0,3,3h17.8" transform="translate(-209.27 -167.23)"/><polygon points="118.25 78.33 123.67 76.88 118.25 75.43 118.25 78.33"/><path class="cls-5" d="M370.43,225.65V241a3,3,0,0,1-3,3h-17.8" transform="translate(-209.27 -167.23)"/><polygon points="141.35 75.35 135.93 76.8 141.35 78.25 141.35 75.35"/><line class="cls-5" x1="129.8" y1="82.93" x2="129.8" y2="90.76"/><polygon points="128.35 89.77 129.8 95.19 131.25 89.77 128.35 89.77"/><line class="cls-5" x1="155.11" y1="101.32" x2="140.49" y2="101.32"/><polygon points="141.48 99.86 136.06 101.32 141.48 102.77 141.48 99.86"/><line class="cls-5" x1="155.11" y1="119.7" x2="140.49" y2="119.7"/><polygon points="141.48 118.25 136.06 119.7 141.48 121.15 141.48 118.25"/><line class="cls-5" x1="155.11" y1="138.09" x2="140.49" y2="138.09"/><polygon points="141.48 136.63 136.06 138.09 141.48 139.54 141.48 136.63"/><line class="cls-5" x1="98.44" y1="22.85" x2="98.44" y2="38.42"/><polygon points="96.99 37.43 98.44 42.85 99.89 37.43 96.99 37.43"/><line class="cls-5" x1="129.8" y1="144.21" x2="129.8" y2="152.04"/><polygon points="128.35 151.05 129.8 156.47 131.25 151.05 128.35 151.05"/><rect class="cls-3" x="104.65" y="184.3" width="50.46" height="15.57" rx="3"/><path d="M318.73,363.84v-8.59h3a7.34,7.34,0,0,1,1.53.12,3,3,0,0,1,1.26.62,3.54,3.54,0,0,1,1,1.47,5.82,5.82,0,0,1,.33,2,5.71,5.71,0,0,1-.23,1.73,4,4,0,0,1-.58,1.25,3.2,3.2,0,0,1-.78.78,3.1,3.1,0,0,1-1,.43,5.72,5.72,0,0,1-1.38.15Zm1.14-1h1.83a4.7,4.7,0,0,0,1.34-.16,2.06,2.06,0,0,0,.77-.45,2.71,2.71,0,0,0,.63-1.08,5.38,5.38,0,0,0,.22-1.66,4,4,0,0,0-.44-2.07,2.22,2.22,0,0,0-1.08-1,4.31,4.31,0,0,0-1.47-.18h-1.8Z" transform="translate(-209.27 -167.23)"/><path d="M327.25,363.84v-6.22h.95v.94a2.6,2.6,0,0,1,.67-.87,1.19,1.19,0,0,1,.68-.21,2,2,0,0,1,1.08.34l-.36,1a1.53,1.53,0,0,0-.77-.22,1.1,1.1,0,0,0-.63.2,1.2,1.2,0,0,0-.39.58,4.07,4.07,0,0,0-.17,1.23v3.26Z" transform="translate(-209.27 -167.23)"/><path d="M330.87,360.73a3.2,3.2,0,0,1,1-2.56,2.89,2.89,0,0,1,1.95-.69,2.79,2.79,0,0,1,2.1.84,3.16,3.16,0,0,1,.82,2.32,4.13,4.13,0,0,1-.36,1.89,2.52,2.52,0,0,1-1,1.07,3.11,3.11,0,0,1-1.51.38,2.79,2.79,0,0,1-2.11-.84A3.37,3.37,0,0,1,330.87,360.73Zm1.08,0a2.64,2.64,0,0,0,.52,1.79,1.66,1.66,0,0,0,1.31.59,1.68,1.68,0,0,0,1.31-.59,2.72,2.72,0,0,0,.52-1.83,2.58,2.58,0,0,0-.52-1.75,1.75,1.75,0,0,0-2.62,0A2.64,2.64,0,0,0,332,360.73Z" transform="translate(-209.27 -167.23)"/><path d="M337.93,366.22v-8.6h1v.81a2.47,2.47,0,0,1,.77-.72,2.22,2.22,0,0,1,1-.23,2.38,2.38,0,0,1,1.4.41A2.45,2.45,0,0,1,343,359a4.21,4.21,0,0,1,.32,1.64,4.13,4.13,0,0,1-.35,1.72,2.6,2.6,0,0,1-2.37,1.58,2,2,0,0,1-.94-.22,2.26,2.26,0,0,1-.69-.56v3Zm1-5.46a2.74,2.74,0,0,0,.48,1.78,1.51,1.51,0,0,0,1.18.57,1.53,1.53,0,0,0,1.21-.59,2.85,2.85,0,0,0,.5-1.84,2.81,2.81,0,0,0-.49-1.79,1.45,1.45,0,0,0-2.36,0A2.79,2.79,0,0,0,338.89,360.76Z" transform="translate(-209.27 -167.23)"/><path d="M344.21,360.73a3.18,3.18,0,0,1,1-2.56,2.87,2.87,0,0,1,1.95-.69,2.79,2.79,0,0,1,2.1.84,3.2,3.2,0,0,1,.81,2.32,4.13,4.13,0,0,1-.36,1.89,2.55,2.55,0,0,1-1,1.07,3.11,3.11,0,0,1-1.51.38,2.79,2.79,0,0,1-2.11-.84A3.33,3.33,0,0,1,344.21,360.73Zm1.09,0a2.64,2.64,0,0,0,.52,1.79,1.65,1.65,0,0,0,1.31.59,1.68,1.68,0,0,0,1.31-.59,2.72,2.72,0,0,0,.52-1.83,2.58,2.58,0,0,0-.52-1.75,1.75,1.75,0,0,0-2.62,0A2.64,2.64,0,0,0,345.3,360.73Z" transform="translate(-209.27 -167.23)"/><path d="M355.36,363.84v-.91a2.29,2.29,0,0,1-2,1.05,2.48,2.48,0,0,1-1-.21,1.68,1.68,0,0,1-.71-.53,1.84,1.84,0,0,1-.33-.78,5.84,5.84,0,0,1-.06-1v-3.85h1.05v3.45a5.37,5.37,0,0,0,.07,1.11,1,1,0,0,0,.42.65,1.29,1.29,0,0,0,.8.24,1.78,1.78,0,0,0,.89-.24,1.33,1.33,0,0,0,.58-.66,3.23,3.23,0,0,0,.18-1.22v-3.33h1.05v6.22Z" transform="translate(-209.27 -167.23)"/><path d="M360.26,362.9l.15.93a4.08,4.08,0,0,1-.8.09,1.82,1.82,0,0,1-.89-.18,1,1,0,0,1-.44-.48,3.6,3.6,0,0,1-.13-1.24v-3.58h-.78v-.82h.78v-1.54l1.05-.64v2.18h1.06v.82H359.2v3.64a2.2,2.2,0,0,0,.05.58.49.49,0,0,0,.18.2.74.74,0,0,0,.36.08C359.91,362.94,360.07,362.92,360.26,362.9Z" transform="translate(-209.27 -167.23)"/><line class="cls-5" x1="129.8" y1="172.04" x2="129.8" y2="179.87"/><polygon points="128.35 178.88 129.8 184.29 131.25 178.88 128.35 178.88"/><line class="cls-5" x1="98.44" y1="224.38" x2="98.44" y2="232.2"/><polygon points="96.99 231.21 98.44 236.63 99.89 231.21 96.99 231.21"/><g id="add-3" data-name="add"><circle class="cls-3" cx="129.8" cy="101.32" r="6.13"/></g><g id="add-4" data-name="add"><circle cx="129.8" cy="101.32" r="2.2"/></g><line class="cls-3" x1="129.8" y1="107.44" x2="129.8" y2="113.57"/><g id="add-5" data-name="add"><circle class="cls-3" cx="129.8" cy="119.7" r="6.13"/></g><g id="add-6" data-name="add"><circle cx="129.8" cy="119.7" r="2.2"/></g><line class="cls-3" x1="129.8" y1="125.83" x2="129.8" y2="131.96"/><g id="add-7" data-name="add"><circle class="cls-3" cx="129.8" cy="138.09" r="6.13"/></g><g id="add-8" data-name="add"><circle cx="129.8" cy="138.09" r="2.2"/></g><path class="cls-5" d="M339.15,367.09v15.47a3,3,0,0,1-3,3h-17.8" transform="translate(-209.27 -167.23)"/><polygon points="110.07 216.88 104.65 218.33 110.07 219.78 110.07 216.88"/><path class="cls-5" d="M245,225.65V382.48a3,3,0,0,0,3,3h49.24" transform="translate(-209.27 -167.23)"/><polygon points="86.98 219.7 92.4 218.25 86.98 216.8 86.98 219.7"/><path d="M367.19,268.91l1.07-.09a2.46,2.46,0,0,0,.35,1.06,2,2,0,0,0,.87.66,3.27,3.27,0,0,0,1.32.26,3.09,3.09,0,0,0,1.14-.2,1.53,1.53,0,0,0,.75-.53,1.23,1.23,0,0,0,.24-.73,1.11,1.11,0,0,0-.24-.71,1.64,1.64,0,0,0-.77-.5,15,15,0,0,0-1.53-.42,7.76,7.76,0,0,1-1.66-.54,2.25,2.25,0,0,1-.91-.8,2,2,0,0,1-.3-1.07,2.2,2.2,0,0,1,.36-1.21,2.28,2.28,0,0,1,1.08-.86,4,4,0,0,1,1.58-.29,4.34,4.34,0,0,1,1.68.3,2.51,2.51,0,0,1,1.13.91,2.62,2.62,0,0,1,.42,1.35l-1.09.08a1.77,1.77,0,0,0-.6-1.23,2.34,2.34,0,0,0-1.49-.41,2.45,2.45,0,0,0-1.51.37,1.17,1.17,0,0,0-.47.92,1,1,0,0,0,.33.76,4.55,4.55,0,0,0,1.72.61,11,11,0,0,1,1.9.55,2.64,2.64,0,0,1,1.11.87,2.14,2.14,0,0,1,.35,1.23,2.37,2.37,0,0,1-.39,1.29,2.57,2.57,0,0,1-1.13.94,3.84,3.84,0,0,1-1.65.34,5,5,0,0,1-2-.34,2.78,2.78,0,0,1-1.24-1A2.86,2.86,0,0,1,367.19,268.91Z" transform="translate(-209.27 -167.23)"/><path d="M379.5,269.39l1,.14a2.69,2.69,0,0,1-.87,1.68,2.56,2.56,0,0,1-1.72.6,2.67,2.67,0,0,1-2.05-.83,3.4,3.4,0,0,1-.78-2.4,4.35,4.35,0,0,1,.33-1.76,2.4,2.4,0,0,1,1-1.13,3,3,0,0,1,1.49-.38,2.56,2.56,0,0,1,1.65.51,2.35,2.35,0,0,1,.83,1.46l-1,.16a1.72,1.72,0,0,0-.52-.95,1.35,1.35,0,0,0-.9-.31,1.65,1.65,0,0,0-1.3.57,2.71,2.71,0,0,0-.5,1.8,2.76,2.76,0,0,0,.49,1.83,1.54,1.54,0,0,0,1.25.56,1.47,1.47,0,0,0,1-.38A1.88,1.88,0,0,0,379.5,269.39Z" transform="translate(-209.27 -167.23)"/><path d="M385.5,270.9a3.84,3.84,0,0,1-1.12.71,3.46,3.46,0,0,1-1.17.2,2.21,2.21,0,0,1-1.57-.5,1.64,1.64,0,0,1-.55-1.28,1.67,1.67,0,0,1,.2-.83,1.63,1.63,0,0,1,.55-.61,2.65,2.65,0,0,1,.76-.35,8.61,8.61,0,0,1,.93-.15,10.38,10.38,0,0,0,1.89-.37v-.27a1.16,1.16,0,0,0-.3-.91,1.76,1.76,0,0,0-1.2-.36,1.92,1.92,0,0,0-1.1.26,1.62,1.62,0,0,0-.52.92l-1-.14a2.63,2.63,0,0,1,.46-1.07,2,2,0,0,1,.93-.62,4.09,4.09,0,0,1,1.41-.22,3.64,3.64,0,0,1,1.3.19,1.68,1.68,0,0,1,.73.47,1.6,1.6,0,0,1,.33.72,6.57,6.57,0,0,1,.05,1v1.4a13.75,13.75,0,0,0,.07,1.86,2.12,2.12,0,0,0,.27.75h-1.11A2.17,2.17,0,0,1,385.5,270.9Zm-.08-2.35a8.26,8.26,0,0,1-1.73.4,3.82,3.82,0,0,0-.92.21.87.87,0,0,0-.41.34.92.92,0,0,0,.17,1.2,1.35,1.35,0,0,0,.93.29,2.18,2.18,0,0,0,1.09-.27,1.7,1.7,0,0,0,.7-.73,2.6,2.6,0,0,0,.17-1.05Z" transform="translate(-209.27 -167.23)"/><path d="M388.09,271.67v-8.59h1.06v8.59Z" transform="translate(-209.27 -167.23)"/><path d="M395,269.67l1.09.13a2.64,2.64,0,0,1-.95,1.48,3.24,3.24,0,0,1-3.95-.31,3.31,3.31,0,0,1-.8-2.36,3.41,3.41,0,0,1,.81-2.43,2.74,2.74,0,0,1,2.1-.87,2.66,2.66,0,0,1,2,.85,3.39,3.39,0,0,1,.79,2.39c0,.06,0,.15,0,.28h-4.64a2.38,2.38,0,0,0,.58,1.57,1.74,1.74,0,0,0,1.3.54,1.62,1.62,0,0,0,1-.3A2,2,0,0,0,395,269.67ZM391.58,268h3.47a2.17,2.17,0,0,0-.39-1.18,1.65,1.65,0,0,0-1.31-.6,1.67,1.67,0,0,0-1.22.48A1.92,1.92,0,0,0,391.58,268Z" transform="translate(-209.27 -167.23)"/><path d="M371.5,289.34a4.1,4.1,0,0,1-1.13.71,3.41,3.41,0,0,1-1.16.2,2.29,2.29,0,0,1-1.58-.5,1.67,1.67,0,0,1-.55-1.28,1.72,1.72,0,0,1,.21-.84,1.74,1.74,0,0,1,.54-.6,2.78,2.78,0,0,1,.76-.35,8.38,8.38,0,0,1,.94-.16,9.59,9.59,0,0,0,1.88-.36c0-.14,0-.24,0-.27a1.16,1.16,0,0,0-.3-.91,1.76,1.76,0,0,0-1.2-.36,1.9,1.9,0,0,0-1.1.26,1.6,1.6,0,0,0-.53.92l-1-.14a2.58,2.58,0,0,1,.47-1.07,1.93,1.93,0,0,1,.93-.62,4,4,0,0,1,1.41-.22,3.85,3.85,0,0,1,1.29.18,1.76,1.76,0,0,1,.74.48,1.8,1.8,0,0,1,.33.71,6.84,6.84,0,0,1,.05,1v1.4a13.75,13.75,0,0,0,.07,1.86,2.31,2.31,0,0,0,.26.75h-1.1A2.17,2.17,0,0,1,371.5,289.34Zm-.09-2.35a8.14,8.14,0,0,1-1.72.4,3.82,3.82,0,0,0-.92.21.89.89,0,0,0-.42.34,1,1,0,0,0-.14.5.86.86,0,0,0,.32.7,1.34,1.34,0,0,0,.93.28,2.11,2.11,0,0,0,1.08-.26,1.64,1.64,0,0,0,.7-.73,2.62,2.62,0,0,0,.17-1.06Z" transform="translate(-209.27 -167.23)"/><path d="M376.42,289.17l.15.93a4.08,4.08,0,0,1-.8.09,1.82,1.82,0,0,1-.89-.18,1,1,0,0,1-.44-.48,3.6,3.6,0,0,1-.13-1.24v-3.58h-.78v-.82h.78v-1.54l1-.64v2.18h1.07v.82h-1.07v3.64a1.73,1.73,0,0,0,.06.58.49.49,0,0,0,.18.2.74.74,0,0,0,.36.08C376.07,289.21,376.22,289.19,376.42,289.17Z" transform="translate(-209.27 -167.23)"/><path d="M379.75,289.17l.15.93a4.08,4.08,0,0,1-.8.09,1.85,1.85,0,0,1-.89-.18,1,1,0,0,1-.44-.48,3.6,3.6,0,0,1-.13-1.24v-3.58h-.77v-.82h.77v-1.54l1.05-.64v2.18h1.06v.82h-1.06v3.64a2.2,2.2,0,0,0,.05.58.46.46,0,0,0,.19.2.69.69,0,0,0,.36.08Z" transform="translate(-209.27 -167.23)"/><path d="M380.78,290.11v-6.22h1v.88a2.25,2.25,0,0,1,2-1,2.46,2.46,0,0,1,1,.2,1.58,1.58,0,0,1,.71.53,2,2,0,0,1,.33.78,5.85,5.85,0,0,1,.06,1v3.83h-1.06v-3.79a2.91,2.91,0,0,0-.12-1,1,1,0,0,0-.44-.51,1.35,1.35,0,0,0-.73-.19,1.71,1.71,0,0,0-1.17.43,2.12,2.12,0,0,0-.48,1.62v3.4Z" transform="translate(-209.27 -167.23)"/><path d="M386.48,292.49v-.76h7v.76Z" transform="translate(-209.27 -167.23)"/><path d="M394.13,290.11v-6.22h.94v.87a2.4,2.4,0,0,1,.78-.74,2.25,2.25,0,0,1,1.11-.27,2,2,0,0,1,1.13.28,1.54,1.54,0,0,1,.63.81,2.22,2.22,0,0,1,1.92-1.09,1.88,1.88,0,0,1,1.42.51,2.2,2.2,0,0,1,.5,1.58v4.27h-1.05v-3.92a2.83,2.83,0,0,0-.1-.91.86.86,0,0,0-.37-.45,1.2,1.2,0,0,0-.64-.17,1.49,1.49,0,0,0-1.09.44,1.9,1.9,0,0,0-.43,1.39v3.62h-1.05v-4a1.82,1.82,0,0,0-.26-1.06,1,1,0,0,0-.85-.35,1.51,1.51,0,0,0-.82.24,1.34,1.34,0,0,0-.55.68,3.92,3.92,0,0,0-.17,1.3v3.23Z" transform="translate(-209.27 -167.23)"/><path d="M408.19,289.34a4.25,4.25,0,0,1-1.13.71,3.42,3.42,0,0,1-1.17.2,2.28,2.28,0,0,1-1.57-.5,1.64,1.64,0,0,1-.55-1.28,1.72,1.72,0,0,1,.21-.84,1.65,1.65,0,0,1,.54-.6,2.65,2.65,0,0,1,.76-.35,8.38,8.38,0,0,1,.94-.16,9.75,9.75,0,0,0,1.88-.36v-.27a1.16,1.16,0,0,0-.3-.91,1.76,1.76,0,0,0-1.2-.36,1.92,1.92,0,0,0-1.1.26,1.59,1.59,0,0,0-.52.92l-1-.14a2.57,2.57,0,0,1,.46-1.07,2,2,0,0,1,.93-.62,4.11,4.11,0,0,1,1.42-.22,3.85,3.85,0,0,1,1.29.18,1.72,1.72,0,0,1,.73.48,1.56,1.56,0,0,1,.33.71,5.59,5.59,0,0,1,.05,1v1.4a15.8,15.8,0,0,0,.07,1.86,2.33,2.33,0,0,0,.27.75h-1.1A2.17,2.17,0,0,1,408.19,289.34ZM408.1,287a8.26,8.26,0,0,1-1.73.4,3.82,3.82,0,0,0-.92.21.86.86,0,0,0-.41.34.92.92,0,0,0,.17,1.2,1.37,1.37,0,0,0,.94.28,2.16,2.16,0,0,0,1.08-.26,1.64,1.64,0,0,0,.7-.73,2.62,2.62,0,0,0,.17-1.06Z" transform="translate(-209.27 -167.23)"/><path d="M410.38,288.25l1-.16a1.44,1.44,0,0,0,.49,1,1.72,1.72,0,0,0,1.12.33,1.7,1.7,0,0,0,1.08-.29.9.9,0,0,0,.35-.7.63.63,0,0,0-.31-.56,4.84,4.84,0,0,0-1.08-.36,9.92,9.92,0,0,1-1.61-.5,1.55,1.55,0,0,1-.91-1.43,1.69,1.69,0,0,1,.19-.77,1.73,1.73,0,0,1,.52-.59,2.47,2.47,0,0,1,.67-.31,3.39,3.39,0,0,1,.91-.12,3.63,3.63,0,0,1,1.29.21,1.77,1.77,0,0,1,.82.57,2.35,2.35,0,0,1,.36,1l-1,.14a1.12,1.12,0,0,0-.41-.75,1.47,1.47,0,0,0-.95-.27,1.75,1.75,0,0,0-1,.24.72.72,0,0,0-.31.57.58.58,0,0,0,.13.37,1,1,0,0,0,.4.28l.94.27a13.15,13.15,0,0,1,1.56.49,1.57,1.57,0,0,1,.69.55,1.52,1.52,0,0,1,.25.9,1.79,1.79,0,0,1-.3,1,2,2,0,0,1-.89.73,3.26,3.26,0,0,1-1.31.25,3,3,0,0,1-1.85-.5A2.31,2.31,0,0,1,410.38,288.25Z" transform="translate(-209.27 -167.23)"/><path d="M416.8,290.11v-8.59h1.06v4.9l2.49-2.53h1.37l-2.38,2.31,2.62,3.91h-1.3l-2.06-3.18-.74.71v2.47Z" transform="translate(-209.27 -167.23)"/><path d="M367.44,308.55V300h1.06v4.9l2.5-2.53h1.36l-2.38,2.3,2.62,3.92h-1.3l-2.06-3.18-.74.71v2.47Z" transform="translate(-209.27 -167.23)"/><path d="M377.7,306.54l1.09.14a2.61,2.61,0,0,1-1,1.48,2.87,2.87,0,0,1-1.78.53,2.83,2.83,0,0,1-2.16-.84,3.26,3.26,0,0,1-.8-2.36,3.44,3.44,0,0,1,.81-2.44,2.72,2.72,0,0,1,2.09-.87,2.66,2.66,0,0,1,2,.85,3.38,3.38,0,0,1,.79,2.39v.29h-4.64a2.4,2.4,0,0,0,.58,1.57,1.72,1.72,0,0,0,1.3.54,1.66,1.66,0,0,0,1-.3A2.08,2.08,0,0,0,377.7,306.54Zm-3.46-1.7h3.47a2.14,2.14,0,0,0-.4-1.18,1.59,1.59,0,0,0-1.3-.61,1.67,1.67,0,0,0-1.23.49A1.89,1.89,0,0,0,374.24,304.84Z" transform="translate(-209.27 -167.23)"/><path d="M380.07,310.94l-.12-1a2.08,2.08,0,0,0,.6.1,1.11,1.11,0,0,0,.56-.12.93.93,0,0,0,.35-.33,4.58,4.58,0,0,0,.32-.78,2.51,2.51,0,0,1,.1-.26l-2.36-6.23h1.13l1.3,3.6c.16.46.32.94.45,1.44a13.69,13.69,0,0,1,.43-1.42l1.33-3.62h1.06l-2.37,6.32a11.87,11.87,0,0,1-.59,1.42,2.17,2.17,0,0,1-.65.76,1.52,1.52,0,0,1-.86.24A2,2,0,0,1,380.07,310.94Z" transform="translate(-209.27 -167.23)"/><path d="M385.14,310.93v-.76h7v.76Z" transform="translate(-209.27 -167.23)"/><path d="M392.79,310.93v-8.6h1v.8a2.34,2.34,0,0,1,.77-.71,2.06,2.06,0,0,1,1-.24,2.51,2.51,0,0,1,1.41.41,2.61,2.61,0,0,1,.92,1.16,4.2,4.2,0,0,1,.31,1.64,4.29,4.29,0,0,1-.34,1.72,2.63,2.63,0,0,1-2.37,1.58,2.08,2.08,0,0,1-1-.22,2.15,2.15,0,0,1-.69-.57v3Zm.95-5.46a2.7,2.7,0,0,0,.49,1.78,1.48,1.48,0,0,0,1.18.57,1.54,1.54,0,0,0,1.2-.59,2.86,2.86,0,0,0,.5-1.85,2.74,2.74,0,0,0-.49-1.78,1.47,1.47,0,0,0-1.17-.59,1.52,1.52,0,0,0-1.19.63A2.79,2.79,0,0,0,393.74,305.47Z" transform="translate(-209.27 -167.23)"/><path d="M403.52,307.78a3.83,3.83,0,0,1-1.13.7,3.19,3.19,0,0,1-1.16.21,2.3,2.3,0,0,1-1.58-.5,1.74,1.74,0,0,1,.21-2.72,2.35,2.35,0,0,1,.75-.35,8.38,8.38,0,0,1,.94-.16,9.59,9.59,0,0,0,1.88-.36c0-.15,0-.24,0-.28a1.13,1.13,0,0,0-.3-.9,1.76,1.76,0,0,0-1.2-.36,1.82,1.82,0,0,0-1.1.26,1.54,1.54,0,0,0-.52.92l-1-.14a2.58,2.58,0,0,1,.47-1.07,2,2,0,0,1,.93-.63,4.35,4.35,0,0,1,1.41-.22,3.93,3.93,0,0,1,1.3.19,1.77,1.77,0,0,1,.73.47,1.84,1.84,0,0,1,.33.72,6.77,6.77,0,0,1,.05,1v1.41a13.75,13.75,0,0,0,.07,1.86,2.31,2.31,0,0,0,.26.75h-1.1A2.23,2.23,0,0,1,403.52,307.78Zm-.09-2.36a7.43,7.43,0,0,1-1.72.4,5.15,5.15,0,0,0-.92.21,1,1,0,0,0-.42.35.94.94,0,0,0-.14.5.88.88,0,0,0,.32.7,1.34,1.34,0,0,0,.93.28,2.28,2.28,0,0,0,1.09-.26,1.73,1.73,0,0,0,.69-.73,2.46,2.46,0,0,0,.17-1.06Z" transform="translate(-209.27 -167.23)"/><path d="M410.17,308.55v-.79a1.92,1.92,0,0,1-1.74.93,2.5,2.5,0,0,1-1.37-.41,2.72,2.72,0,0,1-1-1.15,3.92,3.92,0,0,1-.35-1.69,4.58,4.58,0,0,1,.31-1.69,2.48,2.48,0,0,1,2.32-1.57,2.09,2.09,0,0,1,1,.24,2.14,2.14,0,0,1,.71.62V300h1v8.59Zm-3.33-3.11a2.75,2.75,0,0,0,.5,1.79,1.51,1.51,0,0,0,2.37,0,2.65,2.65,0,0,0,.48-1.73,3,3,0,0,0-.49-1.87,1.53,1.53,0,0,0-1.22-.6,1.46,1.46,0,0,0-1.17.57A2.8,2.8,0,0,0,406.84,305.44Z" transform="translate(-209.27 -167.23)"/><path d="M416.85,308.55v-.79a2,2,0,0,1-1.75.93,2.44,2.44,0,0,1-1.36-.41,2.74,2.74,0,0,1-1-1.15,3.92,3.92,0,0,1-.34-1.69,4.39,4.39,0,0,1,.31-1.69,2.45,2.45,0,0,1,.93-1.16,2.49,2.49,0,0,1,1.39-.41,2.05,2.05,0,0,1,1,.24,2.14,2.14,0,0,1,.71.62V300h1.05v8.59Zm-3.34-3.11a2.69,2.69,0,0,0,.51,1.79,1.5,1.5,0,0,0,2.36,0,2.65,2.65,0,0,0,.48-1.73,2.89,2.89,0,0,0-.49-1.87,1.51,1.51,0,0,0-1.21-.6,1.48,1.48,0,0,0-1.18.57A2.86,2.86,0,0,0,413.51,305.44Z" transform="translate(-209.27 -167.23)"/><path d="M419.49,301.17V300h1.05v1.21Zm0,7.38v-6.22h1.05v6.22Z" transform="translate(-209.27 -167.23)"/><path d="M422.15,308.55v-6.22h1v.88a2.23,2.23,0,0,1,2-1,2.5,2.5,0,0,1,1,.21,1.58,1.58,0,0,1,.71.53,2.3,2.3,0,0,1,.33.78,6.07,6.07,0,0,1,.05,1v3.83h-1.05v-3.79a2.87,2.87,0,0,0-.12-1,1.08,1.08,0,0,0-.44-.51,1.36,1.36,0,0,0-.74-.19,1.7,1.7,0,0,0-1.16.43,2.11,2.11,0,0,0-.49,1.62v3.4Z" transform="translate(-209.27 -167.23)"/><path d="M428.63,309.06l1,.16a1.05,1.05,0,0,0,.36.69,1.79,1.79,0,0,0,1.07.29,1.9,1.9,0,0,0,1.13-.29,1.42,1.42,0,0,0,.54-.82,6.62,6.62,0,0,0,.08-1.36,2.16,2.16,0,0,1-1.72.82,2.35,2.35,0,0,1-2-.93,3.57,3.57,0,0,1-.7-2.22,4,4,0,0,1,.32-1.64,2.66,2.66,0,0,1,.93-1.17,2.56,2.56,0,0,1,1.44-.41,2.23,2.23,0,0,1,1.82.9v-.75h1v5.37a5.24,5.24,0,0,1-.29,2.06,2.13,2.13,0,0,1-.94,1,3.21,3.21,0,0,1-1.58.35,3,3,0,0,1-1.8-.5A1.66,1.66,0,0,1,428.63,309.06Zm.87-3.73a2.65,2.65,0,0,0,.49,1.78,1.52,1.52,0,0,0,1.22.56,1.57,1.57,0,0,0,1.22-.55,2.68,2.68,0,0,0,.49-1.76,2.52,2.52,0,0,0-.51-1.72,1.55,1.55,0,0,0-1.22-.58,1.53,1.53,0,0,0-1.2.57A2.59,2.59,0,0,0,429.5,305.33Z" transform="translate(-209.27 -167.23)"/><path d="M434.52,310.93v-.76h7v.76Z" transform="translate(-209.27 -167.23)"/><path d="M442.17,308.55v-6.22h.94v.87a2.19,2.19,0,0,1,1.89-1,2,2,0,0,1,1.13.29,1.52,1.52,0,0,1,.63.8,2.24,2.24,0,0,1,1.92-1.09,1.89,1.89,0,0,1,1.42.52,2.16,2.16,0,0,1,.5,1.58v4.27h-1.05v-3.92a2.83,2.83,0,0,0-.1-.91.86.86,0,0,0-.37-.45,1.2,1.2,0,0,0-.64-.17,1.45,1.45,0,0,0-1.09.44,1.94,1.94,0,0,0-.43,1.39v3.62h-1.05V304.5a1.78,1.78,0,0,0-.26-1.05,1,1,0,0,0-.84-.35,1.6,1.6,0,0,0-.83.23,1.41,1.41,0,0,0-.55.69,3.92,3.92,0,0,0-.17,1.3v3.23Z" transform="translate(-209.27 -167.23)"/><path d="M456.23,307.78a3.83,3.83,0,0,1-1.13.7,3.19,3.19,0,0,1-1.16.21,2.29,2.29,0,0,1-1.58-.5,1.65,1.65,0,0,1-.55-1.28,1.69,1.69,0,0,1,.21-.84,1.65,1.65,0,0,1,.54-.6,2.51,2.51,0,0,1,.76-.35,8.38,8.38,0,0,1,.94-.16,9.59,9.59,0,0,0,1.88-.36v-.28a1.17,1.17,0,0,0-.29-.9,1.77,1.77,0,0,0-1.21-.36,1.79,1.79,0,0,0-1.09.26,1.54,1.54,0,0,0-.53.92l-1-.14a2.57,2.57,0,0,1,.46-1.07,2.13,2.13,0,0,1,.93-.63,4.37,4.37,0,0,1,1.42-.22,3.82,3.82,0,0,1,1.29.19,1.71,1.71,0,0,1,.73.47,1.6,1.6,0,0,1,.33.72,5.53,5.53,0,0,1,.05,1v1.41a15.8,15.8,0,0,0,.07,1.86,2.6,2.6,0,0,0,.27.75h-1.1A2.23,2.23,0,0,1,456.23,307.78Zm-.09-2.36a7.56,7.56,0,0,1-1.72.4,4.93,4.93,0,0,0-.92.21,1,1,0,0,0-.42.35.87.87,0,0,0-.15.5.91.91,0,0,0,.32.7,1.39,1.39,0,0,0,.94.28,2.27,2.27,0,0,0,1.08-.26,1.69,1.69,0,0,0,.7-.73,2.62,2.62,0,0,0,.17-1.06Z" transform="translate(-209.27 -167.23)"/><path d="M458.42,306.69l1-.16a1.49,1.49,0,0,0,.49,1,1.72,1.72,0,0,0,1.12.33,1.68,1.68,0,0,0,1.08-.29.9.9,0,0,0,.35-.7.63.63,0,0,0-.31-.56,4.35,4.35,0,0,0-1.08-.36,8.8,8.8,0,0,1-1.61-.51,1.64,1.64,0,0,1-.68-.59,1.6,1.6,0,0,1-.23-.83,1.66,1.66,0,0,1,.71-1.36,2.2,2.2,0,0,1,.67-.31,3.6,3.6,0,0,1,2.2.09,1.77,1.77,0,0,1,.82.57,2.35,2.35,0,0,1,.36,1l-1,.14a1.12,1.12,0,0,0-.41-.75,1.47,1.47,0,0,0-1-.27,1.75,1.75,0,0,0-1,.24.72.72,0,0,0-.31.56.62.62,0,0,0,.13.37.85.85,0,0,0,.41.28q.15.06.93.27a15.4,15.4,0,0,1,1.56.49,1.6,1.6,0,0,1,.69.56,1.52,1.52,0,0,1,.26.9,1.81,1.81,0,0,1-.31,1,2,2,0,0,1-.89.72,3.22,3.22,0,0,1-1.31.26,2.89,2.89,0,0,1-1.85-.51A2.3,2.3,0,0,1,458.42,306.69Z" transform="translate(-209.27 -167.23)"/><path d="M464.85,308.55V300h1v4.9l2.5-2.53h1.36l-2.38,2.3,2.62,3.92h-1.3l-2.06-3.18-.74.71v2.47Z" transform="translate(-209.27 -167.23)"/><line class="cls-5" x1="35.73" y1="22.85" x2="35.73" y2="38.42"/><polygon points="34.28 37.43 35.73 42.85 37.18 37.43 34.28 37.43"/><line class="cls-5" x1="161.16" y1="22.85" x2="161.16" y2="38.42"/><polygon points="159.7 37.43 161.16 42.85 162.61 37.43 159.7 37.43"/><line class="cls-5" x1="98.44" y1="252.2" x2="98.44" y2="267.77"/><polygon points="96.99 266.78 98.44 272.2 99.89 266.78 96.99 266.78"/><path d="M421.94,439.43l3.3-8.59h1.22l3.52,8.59h-1.29l-1-2.6h-3.59l-.94,2.6Zm2.48-3.53h2.91l-.89-2.37c-.28-.73-.48-1.32-.61-1.79a11,11,0,0,1-.47,1.65Z" transform="translate(-209.27 -167.23)"/><path d="M433.06,438.49l.15.93a4.08,4.08,0,0,1-.8.09,1.82,1.82,0,0,1-.89-.18,1,1,0,0,1-.44-.48,3.6,3.6,0,0,1-.13-1.24V434h-.78v-.82H431v-1.54L432,431v2.17h1.06V434H432v3.64a1.83,1.83,0,0,0,.05.58.49.49,0,0,0,.18.2.74.74,0,0,0,.36.08A3.06,3.06,0,0,0,433.06,438.49Z" transform="translate(-209.27 -167.23)"/><path d="M436.39,438.49l.15.93a4,4,0,0,1-.79.09,1.79,1.79,0,0,1-.89-.18,1,1,0,0,1-.45-.48,3.6,3.6,0,0,1-.13-1.24V434h-.77v-.82h.77v-1.54l1.05-.63v2.17h1.06V434h-1.06v3.64a1.73,1.73,0,0,0,.06.58.38.38,0,0,0,.18.2.69.69,0,0,0,.36.08A3,3,0,0,0,436.39,438.49Z" transform="translate(-209.27 -167.23)"/><path d="M441.68,437.43l1.09.13a2.71,2.71,0,0,1-.95,1.49,2.89,2.89,0,0,1-1.78.52,2.84,2.84,0,0,1-2.17-.84,3.29,3.29,0,0,1-.8-2.36,3.41,3.41,0,0,1,.81-2.43,2.74,2.74,0,0,1,2.1-.87,2.66,2.66,0,0,1,2,.85,3.39,3.39,0,0,1,.79,2.39c0,.06,0,.16,0,.28h-4.64a2.38,2.38,0,0,0,.58,1.57,1.74,1.74,0,0,0,1.3.55,1.62,1.62,0,0,0,1-.31A2,2,0,0,0,441.68,437.43Zm-3.46-1.71h3.47a2,2,0,0,0-.4-1.17,1.59,1.59,0,0,0-1.3-.61,1.67,1.67,0,0,0-1.22.48A1.92,1.92,0,0,0,438.22,435.72Z" transform="translate(-209.27 -167.23)"/><path d="M444.1,439.43v-6.22H445v.88a2.25,2.25,0,0,1,2-1,2.66,2.66,0,0,1,1,.2,1.72,1.72,0,0,1,.71.53,2.1,2.1,0,0,1,.32.78,6,6,0,0,1,.06,1v3.82h-1v-3.78a2.69,2.69,0,0,0-.13-1,1,1,0,0,0-.43-.51,1.48,1.48,0,0,0-.74-.19,1.73,1.73,0,0,0-1.16.43,2.1,2.1,0,0,0-.49,1.62v3.4Z" transform="translate(-209.27 -167.23)"/><path d="M453.07,438.49l.15.93a4,4,0,0,1-.79.09,1.79,1.79,0,0,1-.89-.18,1,1,0,0,1-.45-.48,3.88,3.88,0,0,1-.13-1.24V434h-.77v-.82H451v-1.54L452,431v2.17h1.06V434H452v3.64a1.73,1.73,0,0,0,.06.58.43.43,0,0,0,.18.2.69.69,0,0,0,.36.08A3,3,0,0,0,453.07,438.49Z" transform="translate(-209.27 -167.23)"/><path d="M454.11,432.06v-1.22h1.05v1.22Zm0,7.37v-6.22h1.05v6.22Z" transform="translate(-209.27 -167.23)"/><path d="M456.38,436.32a3.2,3.2,0,0,1,1-2.56,2.89,2.89,0,0,1,2-.69,2.79,2.79,0,0,1,2.1.84,3.16,3.16,0,0,1,.82,2.32,4.13,4.13,0,0,1-.36,1.89,2.52,2.52,0,0,1-1.05,1.07,3,3,0,0,1-1.51.38,2.79,2.79,0,0,1-2.11-.84A3.35,3.35,0,0,1,456.38,436.32Zm1.08,0a2.64,2.64,0,0,0,.52,1.79,1.73,1.73,0,0,0,2.62,0,2.71,2.71,0,0,0,.52-1.82,2.56,2.56,0,0,0-.52-1.75,1.67,1.67,0,0,0-1.31-.6,1.7,1.7,0,0,0-1.31.59A2.64,2.64,0,0,0,457.46,436.32Z" transform="translate(-209.27 -167.23)"/><path d="M463.44,439.43v-6.22h.95v.88a2.25,2.25,0,0,1,2-1,2.71,2.71,0,0,1,1,.2,1.63,1.63,0,0,1,.7.53,2,2,0,0,1,.33.78,6,6,0,0,1,.06,1v3.82h-1.05v-3.78a2.93,2.93,0,0,0-.13-1,1.06,1.06,0,0,0-.43-.51,1.48,1.48,0,0,0-.74-.19,1.72,1.72,0,0,0-1.16.43,2.1,2.1,0,0,0-.49,1.62v3.4Z" transform="translate(-209.27 -167.23)"/><path d="M244.38,186.47l-3.33-8.59h1.23l2.23,6.24c.18.5.33,1,.46,1.4.13-.47.28-.93.46-1.4l2.32-6.24h1.16l-3.36,8.59Z" transform="translate(-209.27 -167.23)"/><path d="M304.59,186.47v-8.59h1.14v4.26l4.26-4.26h1.55l-3.61,3.48,3.76,5.11h-1.5l-3.06-4.35-1.4,1.37v3Z" transform="translate(-209.27 -167.23)"/><path d="M373.2,185.55a6.44,6.44,0,0,0,1.46.79l-.34.79a6.65,6.65,0,0,1-1.84-1,4.21,4.21,0,0,1-2.11.53,4,4,0,0,1-2.12-.56,3.72,3.72,0,0,1-1.46-1.58,5.08,5.08,0,0,1-.51-2.3,5.16,5.16,0,0,1,.51-2.31,3.66,3.66,0,0,1,1.47-1.59,4.28,4.28,0,0,1,2.13-.55,4.14,4.14,0,0,1,2.15.57,3.7,3.7,0,0,1,1.45,1.58,5,5,0,0,1,.5,2.3,5.41,5.41,0,0,1-.32,1.9A4,4,0,0,1,373.2,185.55Zm-2.5-1.46a4.41,4.41,0,0,1,1.62.82,3.52,3.52,0,0,0,1-2.74,4.49,4.49,0,0,0-.35-1.83,2.8,2.8,0,0,0-1-1.21,2.89,2.89,0,0,0-1.53-.43,2.81,2.81,0,0,0-2.11.87,4.42,4.42,0,0,0,0,5.17,2.75,2.75,0,0,0,2.12.9,2.9,2.9,0,0,0,1.14-.23,3.71,3.71,0,0,0-1.12-.49Z" transform="translate(-209.27 -167.23)"/></svg>
