<svg id="render" xmlns="http://www.w3.org/2000/svg" viewBox="0 0 344.95 443.1"><defs><style>.cls-1{fill:#edfcfd;}.cls-1,.cls-10,.cls-2,.cls-3,.cls-4,.cls-6,.cls-7,.cls-8,.cls-9{stroke:#000;stroke-miterlimit:10;}.cls-2,.cls-3,.cls-4,.cls-5{fill:none;}.cls-10,.cls-2,.cls-6,.cls-7,.cls-8,.cls-9{stroke-linecap:round;}.cls-3{stroke-dasharray:5.63;}.cls-4{stroke-dasharray:4.98 4.98;}.cls-6{fill:#e6e6e6;}.cls-7{fill:#bcb5d7;}.cls-8{fill:#85bbe5;}.cls-9{fill:#b8d698;}.cls-10{fill:#f2f2f2;stroke-dasharray:5;}</style></defs><rect class="cls-1" x="0.5" y="0.5" width="343.95" height="442.1" rx="3"/><path class="cls-2" d="M277,347.7l0,15.35a3,3,0,0,0,3,3h73.95a3,3,0,0,0,3-3V313.43a3,3,0,0,1,3-3H419a3,3,0,0,1,3,3v3.67" transform="translate(-177.38 -83.87)"/><polygon points="243.21 232.24 244.66 237.66 246.12 232.24 243.21 232.24"/><rect class="cls-3" x="192.45" y="46.21" width="121.59" height="354.1" rx="3"/><rect class="cls-4" x="30.31" y="45.62" width="121.77" height="229.64" rx="3"/><line class="cls-2" x1="244.79" y1="84.6" x2="244.79" y2="104.56"/><polygon points="243.34 103.57 244.79 108.99 246.24 103.57 243.34 103.57"/><line class="cls-2" x1="244.79" y1="141.99" x2="244.79" y2="151.24"/><polygon points="243.34 150.25 244.79 155.67 246.24 150.25 243.34 150.25"/><path class="cls-5" d="M422.17,152.91" transform="translate(-177.38 -83.87)"/><g id="add"><circle class="cls-6" cx="244.79" cy="161.92" r="6.13"/><line class="cls-6" x1="240.61" y1="161.92" x2="249.19" y2="161.92"/><line class="cls-6" x1="244.79" y1="157.63" x2="244.79" y2="166.21"/></g><line class="cls-2" x1="244.79" y1="270.93" x2="244.79" y2="280.18"/><polygon points="243.34 279.19 244.79 284.61 246.24 279.19 243.34 279.19"/><line class="cls-2" x1="244.79" y1="336.81" x2="244.79" y2="346.07"/><polygon points="243.34 345.08 244.79 350.5 246.24 345.08 243.34 345.08"/><path class="cls-2" d="M421.68,179.44h26.76a3,3,0,0,1,3,3v6" transform="translate(-177.38 -83.87)"/><polygon points="272.61 103.57 274.06 108.99 275.51 103.57 272.61 103.57"/><path class="cls-2" d="M421.68,179.44H394.17a3,3,0,0,0-3,3v6" transform="translate(-177.38 -83.87)"/><polygon points="212.34 103.57 213.79 108.99 215.24 103.57 212.34 103.57"/><path class="cls-5" d="M422.17,321.81" transform="translate(-177.38 -83.87)"/><path class="cls-5" d="M422.17,297.42" transform="translate(-177.38 -83.87)"/><rect class="cls-7" x="202.45" y="69.03" width="84.67" height="15.57" rx="3"/><path d="M393.37,165.22v-8.59h1.14v7.58h4.23v1Z" transform="translate(-177.38 -83.87)"/><path d="M404,164.45a3.88,3.88,0,0,1-1.13.71,3.41,3.41,0,0,1-1.16.2,2.25,2.25,0,0,1-1.58-.5,1.76,1.76,0,0,1-.34-2.11,1.69,1.69,0,0,1,.54-.61,2.78,2.78,0,0,1,.76-.35,8.89,8.89,0,0,1,.94-.15,10.24,10.24,0,0,0,1.88-.37c0-.14,0-.23,0-.27a1.16,1.16,0,0,0-.3-.91,1.76,1.76,0,0,0-1.2-.36,1.9,1.9,0,0,0-1.1.26,1.63,1.63,0,0,0-.53.93l-1-.15a2.53,2.53,0,0,1,.47-1.06,1.88,1.88,0,0,1,.93-.63,4.05,4.05,0,0,1,1.41-.22,3.68,3.68,0,0,1,1.3.19,1.68,1.68,0,0,1,.73.47,1.84,1.84,0,0,1,.33.72,6.67,6.67,0,0,1,.05,1v1.4a13.75,13.75,0,0,0,.07,1.86,2.31,2.31,0,0,0,.26.75h-1.1A2.17,2.17,0,0,1,404,164.45Zm-.09-2.35a8,8,0,0,1-1.72.4,3.82,3.82,0,0,0-.92.21,1,1,0,0,0-.42.34,1,1,0,0,0-.14.5.86.86,0,0,0,.32.7,1.35,1.35,0,0,0,.93.29,2.11,2.11,0,0,0,1.08-.27,1.64,1.64,0,0,0,.7-.73,2.44,2.44,0,0,0,.17-1Z" transform="translate(-177.38 -83.87)"/><path d="M406.59,167.62l-.12-1a2.43,2.43,0,0,0,.6.09,1.18,1.18,0,0,0,.57-.12.87.87,0,0,0,.34-.32,5.3,5.3,0,0,0,.32-.79l.1-.26L406,159h1.13l1.3,3.6q.25.69.45,1.44a13.51,13.51,0,0,1,.43-1.41l1.33-3.63h1.06l-2.37,6.33a12.28,12.28,0,0,1-.59,1.41,2,2,0,0,1-.65.76,1.45,1.45,0,0,1-.86.25A2.25,2.25,0,0,1,406.59,167.62Z" transform="translate(-177.38 -83.87)"/><path d="M416.89,163.22l1.09.13a2.64,2.64,0,0,1-1,1.48,3.24,3.24,0,0,1-3.95-.31,3.31,3.31,0,0,1-.8-2.36,3.41,3.41,0,0,1,.81-2.43,2.74,2.74,0,0,1,2.1-.87,2.66,2.66,0,0,1,2,.85,3.39,3.39,0,0,1,.79,2.39c0,.06,0,.15,0,.28h-4.64A2.38,2.38,0,0,0,414,164a1.74,1.74,0,0,0,1.3.55,1.62,1.62,0,0,0,1-.31A2,2,0,0,0,416.89,163.22Zm-3.46-1.71h3.47a2.09,2.09,0,0,0-.39-1.18,1.65,1.65,0,0,0-1.31-.6,1.69,1.69,0,0,0-1.22.48A2,2,0,0,0,413.43,161.51Z" transform="translate(-177.38 -83.87)"/><path d="M419.3,165.22V159h.94v.94a2.6,2.6,0,0,1,.68-.87,1.16,1.16,0,0,1,.67-.21,2,2,0,0,1,1.09.34l-.37,1a1.41,1.41,0,0,0-.77-.23,1,1,0,0,0-.62.21,1,1,0,0,0-.39.57,4.06,4.06,0,0,0-.18,1.23v3.26Z" transform="translate(-177.38 -83.87)"/><path d="M423.43,165.22v-8.59h1.16l4.51,6.75v-6.75h1.09v8.59H429l-4.51-6.75v6.75Z" transform="translate(-177.38 -83.87)"/><path d="M431.58,162.11a3.2,3.2,0,0,1,1-2.56,2.89,2.89,0,0,1,1.95-.69,2.79,2.79,0,0,1,2.1.84,3.16,3.16,0,0,1,.82,2.32,4.13,4.13,0,0,1-.36,1.89A2.52,2.52,0,0,1,436,165a3,3,0,0,1-1.51.38,2.79,2.79,0,0,1-2.11-.84A3.35,3.35,0,0,1,431.58,162.11Zm1.08,0a2.64,2.64,0,0,0,.52,1.79,1.73,1.73,0,0,0,2.62,0,2.71,2.71,0,0,0,.52-1.82,2.56,2.56,0,0,0-.52-1.75,1.67,1.67,0,0,0-1.31-.6,1.7,1.7,0,0,0-1.31.59A2.64,2.64,0,0,0,432.66,162.11Z" transform="translate(-177.38 -83.87)"/><path d="M438.63,165.22V159h.95v.94a2.6,2.6,0,0,1,.67-.87,1.19,1.19,0,0,1,.68-.21,2,2,0,0,1,1.08.34l-.36,1a1.46,1.46,0,0,0-.77-.23,1,1,0,0,0-.63.21,1.12,1.12,0,0,0-.39.57,4.07,4.07,0,0,0-.17,1.23v3.26Z" transform="translate(-177.38 -83.87)"/><path d="M442.64,165.22V159h.94v.87a2.27,2.27,0,0,1,.78-.73,2.18,2.18,0,0,1,1.11-.28,2,2,0,0,1,1.13.29,1.48,1.48,0,0,1,.63.8,2.22,2.22,0,0,1,1.92-1.09,1.88,1.88,0,0,1,1.42.51,2.2,2.2,0,0,1,.5,1.58v4.27H450V161.3a2.87,2.87,0,0,0-.1-.91.94.94,0,0,0-.37-.45,1.2,1.2,0,0,0-.64-.17,1.49,1.49,0,0,0-1.09.44,2,2,0,0,0-.43,1.4v3.61h-1.05v-4a1.82,1.82,0,0,0-.26-1.06,1,1,0,0,0-.85-.35,1.51,1.51,0,0,0-.82.24,1.34,1.34,0,0,0-.55.68,4,4,0,0,0-.17,1.3v3.23Z" transform="translate(-177.38 -83.87)"/><rect class="cls-8" x="202.56" y="350.64" width="84.67" height="15.57" rx="3"/><path d="M385.92,446.83v-8.59h5.79v1h-4.65v2.66h4v1h-4v3.91Z" transform="translate(-177.38 -83.87)"/><path d="M397.31,444.82l1.09.14a2.68,2.68,0,0,1-.95,1.48,3.24,3.24,0,0,1-3.95-.31,3.31,3.31,0,0,1-.8-2.36,3.44,3.44,0,0,1,.81-2.44,2.74,2.74,0,0,1,2.1-.87,2.69,2.69,0,0,1,2,.85,3.38,3.38,0,0,1,.79,2.39c0,.07,0,.16,0,.29h-4.64a2.46,2.46,0,0,0,.58,1.57,1.74,1.74,0,0,0,1.3.54,1.62,1.62,0,0,0,1-.3A2,2,0,0,0,397.31,444.82Zm-3.46-1.7h3.48a2.11,2.11,0,0,0-.4-1.18,1.61,1.61,0,0,0-1.31-.61,1.66,1.66,0,0,0-1.22.49A1.94,1.94,0,0,0,393.85,443.12Z" transform="translate(-177.38 -83.87)"/><path d="M404,444.82l1.09.14a2.64,2.64,0,0,1-1,1.48,2.87,2.87,0,0,1-1.78.53,2.83,2.83,0,0,1-2.16-.84,3.26,3.26,0,0,1-.8-2.36,3.44,3.44,0,0,1,.81-2.44,2.72,2.72,0,0,1,2.09-.87,2.66,2.66,0,0,1,2,.85,3.38,3.38,0,0,1,.79,2.39V444h-4.64a2.4,2.4,0,0,0,.58,1.57,1.74,1.74,0,0,0,1.3.54,1.66,1.66,0,0,0,1-.3A2.08,2.08,0,0,0,404,444.82Zm-3.46-1.7H404a2.11,2.11,0,0,0-.4-1.18,1.59,1.59,0,0,0-1.3-.61,1.67,1.67,0,0,0-1.23.49A1.89,1.89,0,0,0,400.53,443.12Z" transform="translate(-177.38 -83.87)"/><path d="M410.44,446.83V446a1.92,1.92,0,0,1-1.74.93,2.47,2.47,0,0,1-1.37-.41,2.81,2.81,0,0,1-1-1.15,4.08,4.08,0,0,1-.34-1.69,4.58,4.58,0,0,1,.31-1.69,2.45,2.45,0,0,1,2.32-1.57,2,2,0,0,1,1,.24,2.08,2.08,0,0,1,.72.62v-3.08h1.05v8.59Zm-3.33-3.11a2.69,2.69,0,0,0,.5,1.79,1.53,1.53,0,0,0,1.19.59,1.5,1.5,0,0,0,1.17-.56,2.59,2.59,0,0,0,.49-1.73,3,3,0,0,0-.49-1.88,1.55,1.55,0,0,0-1.22-.59,1.45,1.45,0,0,0-1.17.57A2.8,2.8,0,0,0,407.11,443.72Z" transform="translate(-177.38 -83.87)"/><path d="M416.6,446.83v-8.59h5.8v1h-4.66v2.66h4v1h-4v3.91Z" transform="translate(-177.38 -83.87)"/><path d="M423.35,443.72a3.19,3.19,0,0,1,1-2.56,2.86,2.86,0,0,1,2-.7,2.78,2.78,0,0,1,2.09.84,3.2,3.2,0,0,1,.82,2.33,4.13,4.13,0,0,1-.36,1.89,2.58,2.58,0,0,1-1.05,1.07,3.1,3.1,0,0,1-1.5.38,2.82,2.82,0,0,1-2.12-.84A3.37,3.37,0,0,1,423.35,443.72Zm1.08,0a2.71,2.71,0,0,0,.52,1.79,1.7,1.7,0,0,0,1.32.59,1.64,1.64,0,0,0,1.3-.6,2.69,2.69,0,0,0,.52-1.82,2.58,2.58,0,0,0-.52-1.75,1.75,1.75,0,0,0-2.62,0A2.67,2.67,0,0,0,424.43,443.72Z" transform="translate(-177.38 -83.87)"/><path d="M430.4,446.83V440.6h1v.95a2.78,2.78,0,0,1,.67-.88,1.19,1.19,0,0,1,.68-.21,2.07,2.07,0,0,1,1.08.34l-.36,1a1.55,1.55,0,0,0-.77-.23,1,1,0,0,0-.62.21,1.11,1.11,0,0,0-.4.58,4.3,4.3,0,0,0-.17,1.23v3.26Z" transform="translate(-177.38 -83.87)"/><path d="M435.56,446.83l-1.91-6.23h1.09l1,3.6.37,1.33c0-.06.13-.49.33-1.28l1-3.65h1.08l.93,3.61.31,1.19.36-1.2,1.07-3.6h1l-1.94,6.23h-1.1l-1-3.73-.24-1.06-1.26,4.79Z" transform="translate(-177.38 -83.87)"/><path d="M447.14,446.06a3.83,3.83,0,0,1-1.13.7,3.19,3.19,0,0,1-1.16.21,2.29,2.29,0,0,1-1.58-.5,1.65,1.65,0,0,1-.55-1.28,1.69,1.69,0,0,1,.21-.84,1.74,1.74,0,0,1,.54-.6,2.51,2.51,0,0,1,.76-.35,6.55,6.55,0,0,1,.94-.16,9.59,9.59,0,0,0,1.88-.36c0-.15,0-.24,0-.28a1.17,1.17,0,0,0-.3-.91,2.33,2.33,0,0,0-2.3-.09,1.6,1.6,0,0,0-.53.92l-1-.14a2.57,2.57,0,0,1,.46-1.07,2.11,2.11,0,0,1,.94-.63,4.26,4.26,0,0,1,1.41-.22,3.82,3.82,0,0,1,1.29.19,1.71,1.71,0,0,1,.73.47,1.6,1.6,0,0,1,.33.72,5.19,5.19,0,0,1,.06,1v1.41a16.75,16.75,0,0,0,.06,1.86,2.6,2.6,0,0,0,.27.75h-1.1A2.23,2.23,0,0,1,447.14,446.06Zm-.09-2.36a7.56,7.56,0,0,1-1.72.4,4.93,4.93,0,0,0-.92.21,1,1,0,0,0-.42.35.87.87,0,0,0-.15.5.91.91,0,0,0,.32.7,1.39,1.39,0,0,0,.94.28,2.24,2.24,0,0,0,1.08-.26,1.69,1.69,0,0,0,.7-.73,2.62,2.62,0,0,0,.17-1.06Z" transform="translate(-177.38 -83.87)"/><path d="M449.74,446.83V440.6h.95v.95a2.64,2.64,0,0,1,.67-.88,1.16,1.16,0,0,1,.68-.21,2.13,2.13,0,0,1,1.08.34l-.36,1a1.56,1.56,0,0,0-.78-.23,1,1,0,0,0-.62.21,1.15,1.15,0,0,0-.39.58,4,4,0,0,0-.18,1.23v3.26Z" transform="translate(-177.38 -83.87)"/><path d="M457.78,446.83V446A1.92,1.92,0,0,1,456,447a2.44,2.44,0,0,1-1.36-.41,2.74,2.74,0,0,1-1-1.15,3.92,3.92,0,0,1-.34-1.69,4.39,4.39,0,0,1,.31-1.69,2.39,2.39,0,0,1,.93-1.16,2.47,2.47,0,0,1,1.39-.41,2.05,2.05,0,0,1,1,.24,2.14,2.14,0,0,1,.71.62v-3.08h1.05v8.59Zm-3.33-3.11a2.75,2.75,0,0,0,.5,1.79,1.55,1.55,0,0,0,1.19.59,1.52,1.52,0,0,0,1.18-.56,2.65,2.65,0,0,0,.48-1.73,2.94,2.94,0,0,0-.49-1.88,1.53,1.53,0,0,0-1.21-.59,1.48,1.48,0,0,0-1.18.57A2.86,2.86,0,0,0,454.45,443.72Z" transform="translate(-177.38 -83.87)"/><path class="cls-2" d="M422.17,128.52v9.19a3,3,0,0,0,3,3h53.32a3,3,0,0,1,3,3V242.8a3,3,0,0,1-3,3H432.73" transform="translate(-177.38 -83.87)"/><polygon points="256.34 160.47 250.92 161.92 256.34 163.37 256.34 160.47"/><line class="cls-2" x1="244.79" y1="24.9" x2="244.79" y2="64.6"/><polygon points="243.34 63.61 244.79 69.03 246.24 63.61 243.34 63.61"/><rect class="cls-7" x="202.45" y="192.44" width="84.67" height="15.57" rx="3"/><path d="M393.37,288.63V280h1.14v7.57h4.23v1Z" transform="translate(-177.38 -83.87)"/><path d="M404,287.86a3.83,3.83,0,0,1-1.13.7,3.19,3.19,0,0,1-1.16.21,2.3,2.3,0,0,1-1.58-.5,1.77,1.77,0,0,1-.34-2.12,1.87,1.87,0,0,1,.54-.61,2.76,2.76,0,0,1,.76-.34,6.55,6.55,0,0,1,.94-.16,9.59,9.59,0,0,0,1.88-.36c0-.15,0-.24,0-.28a1.17,1.17,0,0,0-.3-.91,2.33,2.33,0,0,0-2.3-.09,1.6,1.6,0,0,0-.53.92l-1-.14a2.58,2.58,0,0,1,.47-1.07,2,2,0,0,1,.93-.63,4.3,4.3,0,0,1,1.41-.22,3.93,3.93,0,0,1,1.3.19,1.77,1.77,0,0,1,.73.47,1.84,1.84,0,0,1,.33.72,6.67,6.67,0,0,1,.05,1V286a13.75,13.75,0,0,0,.07,1.86,2.31,2.31,0,0,0,.26.75h-1.1A2.23,2.23,0,0,1,404,287.86Zm-.09-2.36a7.43,7.43,0,0,1-1.72.4,3.82,3.82,0,0,0-.92.21,1,1,0,0,0-.42.35.94.94,0,0,0-.14.5.88.88,0,0,0,.32.7,1.34,1.34,0,0,0,.93.28,2.11,2.11,0,0,0,1.08-.27,1.59,1.59,0,0,0,.7-.73,2.41,2.41,0,0,0,.17-1.05Z" transform="translate(-177.38 -83.87)"/><path d="M406.59,291l-.12-1a2.08,2.08,0,0,0,.6.1,1.18,1.18,0,0,0,.57-.12,1,1,0,0,0,.34-.33,5,5,0,0,0,.32-.78,2.51,2.51,0,0,1,.1-.26L406,282.4h1.13l1.3,3.61a13.53,13.53,0,0,1,.45,1.44,13,13,0,0,1,.43-1.42l1.33-3.63h1.06l-2.37,6.33a10.85,10.85,0,0,1-.59,1.41,2,2,0,0,1-.65.77,1.52,1.52,0,0,1-.86.24A2,2,0,0,1,406.59,291Z" transform="translate(-177.38 -83.87)"/><path d="M416.89,286.62l1.09.14a2.68,2.68,0,0,1-1,1.48,2.89,2.89,0,0,1-1.78.53,2.85,2.85,0,0,1-2.17-.84,3.31,3.31,0,0,1-.8-2.36,3.44,3.44,0,0,1,.81-2.44,2.74,2.74,0,0,1,2.1-.87,2.69,2.69,0,0,1,2,.85,3.43,3.43,0,0,1,.79,2.39c0,.07,0,.16,0,.28h-4.64a2.36,2.36,0,0,0,.58,1.57,1.71,1.71,0,0,0,1.3.55,1.62,1.62,0,0,0,1-.3A2,2,0,0,0,416.89,286.62Zm-3.46-1.7h3.47a2,2,0,0,0-.39-1.18,1.63,1.63,0,0,0-1.31-.61,1.66,1.66,0,0,0-1.22.49A1.92,1.92,0,0,0,413.43,284.92Z" transform="translate(-177.38 -83.87)"/><path d="M419.3,288.63V282.4h.94v1a2.66,2.66,0,0,1,.68-.88,1.16,1.16,0,0,1,.67-.21,2.13,2.13,0,0,1,1.09.34l-.37,1a1.49,1.49,0,0,0-.77-.23,1,1,0,0,0-.62.21,1,1,0,0,0-.39.58,4,4,0,0,0-.18,1.23v3.26Z" transform="translate(-177.38 -83.87)"/><path d="M423.43,288.63V280h1.16l4.51,6.74V280h1.09v8.59H429l-4.51-6.75v6.75Z" transform="translate(-177.38 -83.87)"/><path d="M431.58,285.52a3.23,3.23,0,0,1,1-2.57,2.89,2.89,0,0,1,1.95-.69,2.79,2.79,0,0,1,2.1.84,3.19,3.19,0,0,1,.82,2.33,4.13,4.13,0,0,1-.36,1.89,2.58,2.58,0,0,1-1.05,1.07,3.11,3.11,0,0,1-1.51.38,2.79,2.79,0,0,1-2.11-.84A3.37,3.37,0,0,1,431.58,285.52Zm1.08,0a2.66,2.66,0,0,0,.52,1.79,1.7,1.7,0,0,0,1.31.59,1.66,1.66,0,0,0,1.31-.6,2.69,2.69,0,0,0,.52-1.82,2.58,2.58,0,0,0-.52-1.75,1.75,1.75,0,0,0-2.62,0A2.62,2.62,0,0,0,432.66,285.52Z" transform="translate(-177.38 -83.87)"/><path d="M438.63,288.63V282.4h.95v1a2.66,2.66,0,0,1,.67-.88,1.19,1.19,0,0,1,.68-.21,2.1,2.1,0,0,1,1.08.34l-.36,1a1.55,1.55,0,0,0-.77-.23,1,1,0,0,0-.63.21,1.15,1.15,0,0,0-.39.58,4,4,0,0,0-.17,1.23v3.26Z" transform="translate(-177.38 -83.87)"/><path d="M442.64,288.63V282.4h.94v.88a2.19,2.19,0,0,1,1.89-1,2,2,0,0,1,1.13.29,1.52,1.52,0,0,1,.63.8,2.24,2.24,0,0,1,1.92-1.09,1.85,1.85,0,0,1,1.42.52,2.17,2.17,0,0,1,.5,1.57v4.28H450v-3.92a2.79,2.79,0,0,0-.1-.91.86.86,0,0,0-.37-.45,1.11,1.11,0,0,0-.64-.17,1.49,1.49,0,0,0-1.09.43,2,2,0,0,0-.43,1.4v3.62h-1.05v-4.05a1.76,1.76,0,0,0-.26-1.05,1,1,0,0,0-.85-.35,1.59,1.59,0,0,0-.82.23,1.41,1.41,0,0,0-.55.69,3.92,3.92,0,0,0-.17,1.3v3.23Z" transform="translate(-177.38 -83.87)"/><rect class="cls-7" x="202.45" y="321.25" width="84.67" height="15.57" rx="3"/><path d="M393.37,417.44v-8.59h1.14v7.57h4.23v1Z" transform="translate(-177.38 -83.87)"/><path d="M404,416.67a4,4,0,0,1-1.13.7,3.19,3.19,0,0,1-1.16.21,2.26,2.26,0,0,1-1.58-.51,1.76,1.76,0,0,1-.34-2.11,1.87,1.87,0,0,1,.54-.61,2.76,2.76,0,0,1,.76-.34,6.55,6.55,0,0,1,.94-.16,9.59,9.59,0,0,0,1.88-.36c0-.15,0-.24,0-.28a1.17,1.17,0,0,0-.3-.91,1.76,1.76,0,0,0-1.2-.36,1.82,1.82,0,0,0-1.1.27,1.6,1.6,0,0,0-.53.92l-1-.14a2.58,2.58,0,0,1,.47-1.07,2,2,0,0,1,.93-.63,4.3,4.3,0,0,1,1.41-.22,3.68,3.68,0,0,1,1.3.19,1.68,1.68,0,0,1,.73.47,1.84,1.84,0,0,1,.33.72,6.67,6.67,0,0,1,.05,1v1.41a13.75,13.75,0,0,0,.07,1.86,2.31,2.31,0,0,0,.26.75h-1.1A2.23,2.23,0,0,1,404,416.67Zm-.09-2.36a7.43,7.43,0,0,1-1.72.4,3.82,3.82,0,0,0-.92.21,1,1,0,0,0-.42.34,1,1,0,0,0-.14.51.88.88,0,0,0,.32.7,1.34,1.34,0,0,0,.93.28,2.11,2.11,0,0,0,1.08-.27,1.59,1.59,0,0,0,.7-.73,2.41,2.41,0,0,0,.17-1.05Z" transform="translate(-177.38 -83.87)"/><path d="M406.59,419.83l-.12-1a2.49,2.49,0,0,0,.6.1,1.18,1.18,0,0,0,.57-.12,1,1,0,0,0,.34-.33,5.3,5.3,0,0,0,.32-.79c0-.05.05-.14.1-.25L406,411.21h1.13l1.3,3.61a13.53,13.53,0,0,1,.45,1.44,13,13,0,0,1,.43-1.42l1.33-3.63h1.06l-2.37,6.33a12.28,12.28,0,0,1-.59,1.41,2,2,0,0,1-.65.77,1.52,1.52,0,0,1-.86.24A2,2,0,0,1,406.59,419.83Z" transform="translate(-177.38 -83.87)"/><path d="M416.89,415.43l1.09.14a2.68,2.68,0,0,1-1,1.48,2.89,2.89,0,0,1-1.78.53,2.82,2.82,0,0,1-2.17-.85,3.28,3.28,0,0,1-.8-2.35,3.44,3.44,0,0,1,.81-2.44,2.74,2.74,0,0,1,2.1-.87,2.66,2.66,0,0,1,2,.85,3.41,3.41,0,0,1,.79,2.39c0,.06,0,.16,0,.28h-4.64a2.36,2.36,0,0,0,.58,1.57,1.71,1.71,0,0,0,1.3.55,1.56,1.56,0,0,0,1-.31A1.93,1.93,0,0,0,416.89,415.43Zm-3.46-1.7h3.47a2,2,0,0,0-.39-1.18,1.63,1.63,0,0,0-1.31-.61,1.66,1.66,0,0,0-1.22.49A1.92,1.92,0,0,0,413.43,413.73Z" transform="translate(-177.38 -83.87)"/><path d="M419.3,417.44v-6.23h.94v1a2.56,2.56,0,0,1,.68-.88,1.16,1.16,0,0,1,.67-.21,2.13,2.13,0,0,1,1.09.34l-.37,1a1.49,1.49,0,0,0-.77-.23,1,1,0,0,0-.62.21,1,1,0,0,0-.39.58,4,4,0,0,0-.18,1.23v3.26Z" transform="translate(-177.38 -83.87)"/><path d="M423.43,417.44v-8.59h1.16l4.51,6.74v-6.74h1.09v8.59H429l-4.51-6.75v6.75Z" transform="translate(-177.38 -83.87)"/><path d="M431.58,414.32a3.22,3.22,0,0,1,1-2.56,2.89,2.89,0,0,1,1.95-.69,2.79,2.79,0,0,1,2.1.84,3.19,3.19,0,0,1,.82,2.33,4.13,4.13,0,0,1-.36,1.89,2.55,2.55,0,0,1-1.05,1.06,3,3,0,0,1-1.51.39,2.79,2.79,0,0,1-2.11-.84A3.4,3.4,0,0,1,431.58,414.32Zm1.08,0a2.62,2.62,0,0,0,.52,1.79,1.73,1.73,0,0,0,2.62,0,2.71,2.71,0,0,0,.52-1.82,2.58,2.58,0,0,0-.52-1.75,1.73,1.73,0,0,0-2.62,0A2.61,2.61,0,0,0,432.66,414.32Z" transform="translate(-177.38 -83.87)"/><path d="M438.63,417.44v-6.23h.95v1a2.56,2.56,0,0,1,.67-.88,1.19,1.19,0,0,1,.68-.21,2.1,2.1,0,0,1,1.08.34l-.36,1a1.55,1.55,0,0,0-.77-.23,1,1,0,0,0-.63.21,1.15,1.15,0,0,0-.39.58,4,4,0,0,0-.17,1.23v3.26Z" transform="translate(-177.38 -83.87)"/><path d="M442.64,417.44v-6.23h.94v.88a2.3,2.3,0,0,1,.78-.74,2.18,2.18,0,0,1,1.11-.28,2,2,0,0,1,1.13.29,1.52,1.52,0,0,1,.63.8,2.24,2.24,0,0,1,1.92-1.09,1.88,1.88,0,0,1,1.42.51,2.22,2.22,0,0,1,.5,1.58v4.28H450v-3.92a2.9,2.9,0,0,0-.1-.92.88.88,0,0,0-.37-.44,1.11,1.11,0,0,0-.64-.17,1.49,1.49,0,0,0-1.09.43,2,2,0,0,0-.43,1.4v3.62h-1.05v-4.05a1.76,1.76,0,0,0-.26-1.05,1,1,0,0,0-.85-.35,1.5,1.5,0,0,0-.82.23,1.37,1.37,0,0,0-.55.69,3.92,3.92,0,0,0-.17,1.3v3.23Z" transform="translate(-177.38 -83.87)"/><line class="cls-2" x1="244.79" y1="168.05" x2="244.79" y2="188.01"/><polygon points="243.34 187.02 244.79 192.44 246.24 187.02 243.34 187.02"/><path class="cls-2" d="M422.1,252v9.19a3,3,0,0,0,3,3h53.32a3,3,0,0,1,3,3v104a3,3,0,0,1-3,3H432.73" transform="translate(-177.38 -83.87)"/><polygon points="256.34 288.79 250.92 290.25 256.34 291.7 256.34 288.79"/><g id="add-2" data-name="add"><circle class="cls-6" cx="244.79" cy="290.25" r="6.13"/><line class="cls-6" x1="240.61" y1="290.25" x2="249.19" y2="290.25"/><line class="cls-6" x1="244.79" y1="285.96" x2="244.79" y2="294.54"/></g><line class="cls-2" x1="244.79" y1="366.21" x2="244.79" y2="375.46"/><polygon points="243.34 374.47 244.79 379.89 246.24 374.47 243.34 374.47"/><line class="cls-2" x1="244.79" y1="392.15" x2="244.79" y2="415.07"/><polygon points="243.34 414.08 244.79 419.5 246.24 414.08 243.34 414.08"/><g id="add-3" data-name="add"><circle class="cls-6" cx="244.79" cy="386.02" r="6.13"/><line class="cls-6" x1="240.61" y1="386.02" x2="249.19" y2="386.02"/><line class="cls-6" x1="244.79" y1="381.73" x2="244.79" y2="390.31"/></g><path class="cls-2" d="M422.17,404.64V380.25l.08,9.22a3,3,0,0,0,3,3h53.17a3,3,0,0,1,3,3v71.45a3,3,0,0,1-3,3H432.73" transform="translate(-177.38 -83.87)"/><polygon points="256.34 384.57 250.92 386.02 256.34 387.47 256.34 384.57"/><path class="cls-2" d="M422.28,291.82l.05,6.57a3,3,0,0,0,3,3h22.76a3,3,0,0,1,3,3v12.94" transform="translate(-177.38 -83.87)"/><polygon points="272.25 232.45 273.71 237.87 275.16 232.45 272.25 232.45"/><rect class="cls-9" x="202.45" y="237.87" width="84.67" height="33" rx="3"/><path d="M398.47,349.13l3.3-8.59H403l3.52,8.59h-1.3l-1-2.6h-3.59l-.94,2.6ZM401,345.6h2.91l-.9-2.38c-.27-.72-.47-1.31-.61-1.78a10.84,10.84,0,0,1-.46,1.64Z" transform="translate(-177.38 -83.87)"/><path d="M409.58,348.18l.16.94a4.16,4.16,0,0,1-.8.09,1.82,1.82,0,0,1-.89-.18,1,1,0,0,1-.45-.48,3.93,3.93,0,0,1-.13-1.24v-3.58h-.77v-.82h.77v-1.55l1-.63v2.18h1.06v.82h-1.06v3.63a1.65,1.65,0,0,0,.06.58.46.46,0,0,0,.18.21.69.69,0,0,0,.36.08A3.17,3.17,0,0,0,409.58,348.18Z" transform="translate(-177.38 -83.87)"/><path d="M412.92,348.18l.15.94a4.08,4.08,0,0,1-.8.09,1.82,1.82,0,0,1-.89-.18,1,1,0,0,1-.44-.48,3.64,3.64,0,0,1-.13-1.24v-3.58H410v-.82h.78v-1.55l1.05-.63v2.18h1.06v.82h-1.06v3.63a2.09,2.09,0,0,0,.05.58.46.46,0,0,0,.18.21.74.74,0,0,0,.36.08A3.28,3.28,0,0,0,412.92,348.18Z" transform="translate(-177.38 -83.87)"/><path d="M418.21,347.12l1.09.14a2.61,2.61,0,0,1-1,1.48,2.87,2.87,0,0,1-1.78.53,2.83,2.83,0,0,1-2.16-.84,3.26,3.26,0,0,1-.8-2.36,3.44,3.44,0,0,1,.81-2.44,2.7,2.7,0,0,1,2.09-.87,2.66,2.66,0,0,1,2,.85,3.38,3.38,0,0,1,.79,2.39v.29h-4.64a2.4,2.4,0,0,0,.58,1.57,1.72,1.72,0,0,0,1.3.54,1.66,1.66,0,0,0,1-.3A2.08,2.08,0,0,0,418.21,347.12Zm-3.46-1.7h3.47a2.14,2.14,0,0,0-.4-1.18,1.59,1.59,0,0,0-1.3-.61,1.67,1.67,0,0,0-1.23.49A1.89,1.89,0,0,0,414.75,345.42Z" transform="translate(-177.38 -83.87)"/><path d="M420.62,349.13v-6.22h.95v.88a2.25,2.25,0,0,1,2-1,2.54,2.54,0,0,1,1,.21,1.55,1.55,0,0,1,.7.53,2,2,0,0,1,.33.78,5.77,5.77,0,0,1,.06,1v3.83h-1.06v-3.79a2.87,2.87,0,0,0-.12-1,1,1,0,0,0-.44-.51,1.32,1.32,0,0,0-.73-.19,1.67,1.67,0,0,0-1.16.43,2.08,2.08,0,0,0-.49,1.62v3.4Z" transform="translate(-177.38 -83.87)"/><path d="M429.6,348.18l.15.94a4.08,4.08,0,0,1-.8.09,1.82,1.82,0,0,1-.89-.18,1,1,0,0,1-.44-.48,3.64,3.64,0,0,1-.13-1.24v-3.58h-.77v-.82h.77v-1.55l1.05-.63v2.18h1.06v.82h-1.06v3.63a2.09,2.09,0,0,0,0,.58.43.43,0,0,0,.19.21.69.69,0,0,0,.36.08A3.31,3.31,0,0,0,429.6,348.18Z" transform="translate(-177.38 -83.87)"/><path d="M430.64,341.75v-1.21h1.05v1.21Zm0,7.38v-6.22h1.05v6.22Z" transform="translate(-177.38 -83.87)"/><path d="M432.9,346a3.19,3.19,0,0,1,1-2.56,2.92,2.92,0,0,1,2-.7,2.76,2.76,0,0,1,2.1.85,3.2,3.2,0,0,1,.81,2.32,4.13,4.13,0,0,1-.36,1.89,2.58,2.58,0,0,1-1.05,1.07,3.07,3.07,0,0,1-1.5.38,2.79,2.79,0,0,1-2.11-.84A3.33,3.33,0,0,1,432.9,346Zm1.09,0a2.66,2.66,0,0,0,.52,1.79,1.68,1.68,0,0,0,1.31.59,1.66,1.66,0,0,0,1.31-.6,2.67,2.67,0,0,0,.52-1.82,2.58,2.58,0,0,0-.52-1.75,1.7,1.7,0,0,0-1.31-.59,1.65,1.65,0,0,0-1.31.59A2.62,2.62,0,0,0,434,346Z" transform="translate(-177.38 -83.87)"/><path d="M440,349.13v-6.22h.95v.88a2.25,2.25,0,0,1,2-1,2.5,2.5,0,0,1,1,.21,1.58,1.58,0,0,1,.71.53,2,2,0,0,1,.33.78,5.77,5.77,0,0,1,.06,1v3.83H444v-3.79a2.87,2.87,0,0,0-.12-1,1,1,0,0,0-.44-.51,1.35,1.35,0,0,0-.73-.19,1.71,1.71,0,0,0-1.17.43,2.11,2.11,0,0,0-.49,1.62v3.4Z" transform="translate(-177.38 -83.87)"/><path d="M419.16,336.14v-8.59h1.14v4.26l4.26-4.26h1.54L422.5,331l3.76,5.11h-1.5l-3.06-4.35-1.4,1.37v3Z" transform="translate(-177.38 -83.87)"/><path d="M454.08,335.22a7.47,7.47,0,0,0,1.46.8l-.33.79a7,7,0,0,1-1.85-1.06,4.19,4.19,0,0,1-2.11.54,4,4,0,0,1-2.11-.57,3.72,3.72,0,0,1-1.46-1.58,4.93,4.93,0,0,1-.52-2.3,5.19,5.19,0,0,1,.52-2.31,3.55,3.55,0,0,1,1.47-1.59,4.22,4.22,0,0,1,2.13-.54,4.1,4.1,0,0,1,2.14.56,3.78,3.78,0,0,1,1.46,1.58,5.21,5.21,0,0,1,.5,2.3,5.5,5.5,0,0,1-.32,1.91A4,4,0,0,1,454.08,335.22Zm-2.5-1.45a4,4,0,0,1,1.62.82,3.54,3.54,0,0,0,1-2.75,4.28,4.28,0,0,0-.36-1.82,2.63,2.63,0,0,0-1-1.21,2.76,2.76,0,0,0-1.53-.43,2.82,2.82,0,0,0-2.11.87,3.58,3.58,0,0,0-.83,2.59,3.68,3.68,0,0,0,.82,2.58,3,3,0,0,0,3.27.66,3.71,3.71,0,0,0-1.12-.49Z" transform="translate(-177.38 -83.87)"/><path d="M390.52,336.14l-3.33-8.59h1.23l2.23,6.24q.27.75.45,1.41c.13-.47.29-.94.46-1.41l2.32-6.24H395l-3.36,8.59Z" transform="translate(-177.38 -83.87)"/><rect class="cls-9" x="202.45" y="108.99" width="84.67" height="33" rx="3"/><path d="M398.47,220.25l3.3-8.59H403l3.52,8.59h-1.3l-1-2.6h-3.59l-.94,2.6Zm2.48-3.53h2.91l-.9-2.38c-.27-.72-.47-1.31-.61-1.78a10.84,10.84,0,0,1-.46,1.64Z" transform="translate(-177.38 -83.87)"/><path d="M409.58,219.31l.16.93a4.16,4.16,0,0,1-.8.09,1.82,1.82,0,0,1-.89-.18,1,1,0,0,1-.45-.48,3.88,3.88,0,0,1-.13-1.24v-3.58h-.77V214h.77v-1.54l1-.64V214h1.06v.82h-1.06v3.64a1.73,1.73,0,0,0,.06.58.49.49,0,0,0,.18.2.69.69,0,0,0,.36.08C409.24,219.35,409.39,219.33,409.58,219.31Z" transform="translate(-177.38 -83.87)"/><path d="M412.92,219.31l.15.93a4.08,4.08,0,0,1-.8.09,1.82,1.82,0,0,1-.89-.18,1,1,0,0,1-.44-.48,3.6,3.6,0,0,1-.13-1.24v-3.58H410V214h.78v-1.54l1.05-.64V214h1.06v.82h-1.06v3.64a2.2,2.2,0,0,0,.05.58.49.49,0,0,0,.18.2.74.74,0,0,0,.36.08C412.57,219.35,412.73,219.33,412.92,219.31Z" transform="translate(-177.38 -83.87)"/><path d="M418.21,218.25l1.09.13a2.61,2.61,0,0,1-1,1.48,3.22,3.22,0,0,1-3.94-.31,3.26,3.26,0,0,1-.8-2.36,3.46,3.46,0,0,1,.81-2.44,2.73,2.73,0,0,1,2.09-.86,2.63,2.63,0,0,1,2,.85,3.35,3.35,0,0,1,.79,2.39v.28h-4.64a2.38,2.38,0,0,0,.58,1.57,1.72,1.72,0,0,0,1.3.54,1.66,1.66,0,0,0,1-.3A2,2,0,0,0,418.21,218.25Zm-3.46-1.71h3.47a2.17,2.17,0,0,0-.4-1.18,1.62,1.62,0,0,0-1.3-.61,1.71,1.71,0,0,0-1.23.49A1.91,1.91,0,0,0,414.75,216.54Z" transform="translate(-177.38 -83.87)"/><path d="M420.62,220.25V214h.95v.88a2.25,2.25,0,0,1,2-1,2.71,2.71,0,0,1,1,.2,1.55,1.55,0,0,1,.7.53,2,2,0,0,1,.33.78,5.85,5.85,0,0,1,.06,1v3.83h-1.06v-3.78a2.94,2.94,0,0,0-.12-1,1,1,0,0,0-.44-.51,1.41,1.41,0,0,0-.73-.19,1.67,1.67,0,0,0-1.16.43,2.09,2.09,0,0,0-.49,1.62v3.4Z" transform="translate(-177.38 -83.87)"/><path d="M429.6,219.31l.15.93a4.08,4.08,0,0,1-.8.09,1.82,1.82,0,0,1-.89-.18,1,1,0,0,1-.44-.48,3.6,3.6,0,0,1-.13-1.24v-3.58h-.77V214h.77v-1.54l1.05-.64V214h1.06v.82h-1.06v3.64a2.2,2.2,0,0,0,0,.58.46.46,0,0,0,.19.2.69.69,0,0,0,.36.08Z" transform="translate(-177.38 -83.87)"/><path d="M430.64,212.87v-1.21h1.05v1.21Zm0,7.38V214h1.05v6.22Z" transform="translate(-177.38 -83.87)"/><path d="M432.9,217.14a3.2,3.2,0,0,1,1-2.56,2.91,2.91,0,0,1,2-.69,2.79,2.79,0,0,1,2.1.84,3.2,3.2,0,0,1,.81,2.32,4.13,4.13,0,0,1-.36,1.89,2.52,2.52,0,0,1-1.05,1.07,3.07,3.07,0,0,1-1.5.38,2.79,2.79,0,0,1-2.11-.84A3.31,3.31,0,0,1,432.9,217.14Zm1.09,0a2.64,2.64,0,0,0,.52,1.79,1.75,1.75,0,0,0,2.62,0,2.72,2.72,0,0,0,.52-1.83,2.53,2.53,0,0,0-.52-1.74,1.74,1.74,0,0,0-2.62,0A2.64,2.64,0,0,0,434,217.14Z" transform="translate(-177.38 -83.87)"/><path d="M440,220.25V214h.95v.88a2.25,2.25,0,0,1,2-1,2.66,2.66,0,0,1,1,.2,1.58,1.58,0,0,1,.71.53,2,2,0,0,1,.33.78,5.85,5.85,0,0,1,.06,1v3.83H444v-3.78a2.94,2.94,0,0,0-.12-1,1,1,0,0,0-.44-.51,1.44,1.44,0,0,0-.73-.19,1.71,1.71,0,0,0-1.17.43,2.13,2.13,0,0,0-.49,1.62v3.4Z" transform="translate(-177.38 -83.87)"/><path d="M419.16,207.26v-8.59h1.14v4.26l4.26-4.26h1.54l-3.6,3.48,3.76,5.11h-1.5l-3.06-4.35-1.4,1.38v3Z" transform="translate(-177.38 -83.87)"/><path d="M454.08,206.34a7,7,0,0,0,1.46.8l-.33.79a6.7,6.7,0,0,1-1.85-1.05,4.29,4.29,0,0,1-2.11.53,4.11,4.11,0,0,1-2.11-.56,3.81,3.81,0,0,1-1.46-1.59,4.92,4.92,0,0,1-.52-2.29,5.23,5.23,0,0,1,.52-2.32,3.65,3.65,0,0,1,1.47-1.59,4.22,4.22,0,0,1,2.13-.54,4.1,4.1,0,0,1,2.14.57,3.66,3.66,0,0,1,1.46,1.58,5.17,5.17,0,0,1,.5,2.29,5.46,5.46,0,0,1-.32,1.91A4,4,0,0,1,454.08,206.34Zm-2.5-1.45a4.12,4.12,0,0,1,1.62.82,3.54,3.54,0,0,0,1-2.75,4.31,4.31,0,0,0-.36-1.82,2.68,2.68,0,0,0-1-1.21,2.76,2.76,0,0,0-1.53-.43,2.82,2.82,0,0,0-2.11.87,3.6,3.6,0,0,0-.83,2.6,3.67,3.67,0,0,0,.82,2.57,2.77,2.77,0,0,0,2.12.9,3,3,0,0,0,1.15-.23,3.48,3.48,0,0,0-1.12-.49Z" transform="translate(-177.38 -83.87)"/><path d="M390.52,207.26l-3.33-8.59h1.23l2.23,6.24q.27.75.45,1.41c.13-.47.29-.94.46-1.41l2.32-6.24H395l-3.36,8.59Z" transform="translate(-177.38 -83.87)"/><line class="cls-2" x1="99.63" y1="84.6" x2="99.63" y2="104.56"/><polygon points="98.18 103.57 99.63 108.99 101.08 103.57 98.18 103.57"/><line class="cls-2" x1="99.63" y1="141.99" x2="99.63" y2="151.24"/><polygon points="98.18 150.25 99.63 155.67 101.08 150.25 98.18 150.25"/><path class="cls-5" d="M277,152.91" transform="translate(-177.38 -83.87)"/><g id="add-4" data-name="add"><circle class="cls-6" cx="99.63" cy="161.92" r="6.13"/><line class="cls-6" x1="95.45" y1="161.92" x2="104.03" y2="161.92"/><line class="cls-6" x1="99.63" y1="157.63" x2="99.63" y2="166.21"/></g><line class="cls-2" x1="99.63" y1="208.49" x2="99.63" y2="217.74"/><polygon points="98.18 216.75 99.63 222.17 101.08 216.75 98.18 216.75"/><path class="cls-2" d="M276.52,179.44h26.76a3,3,0,0,1,3,3v6" transform="translate(-177.38 -83.87)"/><polygon points="127.45 103.57 128.9 108.99 130.35 103.57 127.45 103.57"/><path class="cls-2" d="M276.52,179.44H249a3,3,0,0,0-3,3v6" transform="translate(-177.38 -83.87)"/><polygon points="67.18 103.57 68.63 108.99 70.08 103.57 67.18 103.57"/><rect class="cls-7" x="57.29" y="69.03" width="84.67" height="15.57" rx="3"/><path d="M248.21,165.22v-8.59h1.14v7.58h4.23v1Z" transform="translate(-177.38 -83.87)"/><path d="M258.86,164.45a3.88,3.88,0,0,1-1.13.71,3.41,3.41,0,0,1-1.16.2,2.25,2.25,0,0,1-1.58-.5,1.76,1.76,0,0,1-.34-2.11,1.69,1.69,0,0,1,.54-.61,2.78,2.78,0,0,1,.76-.35,8.89,8.89,0,0,1,.94-.15,10.24,10.24,0,0,0,1.88-.37c0-.14,0-.23,0-.27a1.16,1.16,0,0,0-.3-.91,1.76,1.76,0,0,0-1.2-.36,1.9,1.9,0,0,0-1.1.26,1.63,1.63,0,0,0-.53.93l-1-.15a2.53,2.53,0,0,1,.47-1.06,1.88,1.88,0,0,1,.93-.63,4.05,4.05,0,0,1,1.41-.22,3.68,3.68,0,0,1,1.3.19,1.68,1.68,0,0,1,.73.47,1.84,1.84,0,0,1,.33.72,6.67,6.67,0,0,1,0,1v1.4a13.75,13.75,0,0,0,.07,1.86,2.31,2.31,0,0,0,.26.75h-1.1A2.17,2.17,0,0,1,258.86,164.45Zm-.09-2.35a8.14,8.14,0,0,1-1.72.4,3.82,3.82,0,0,0-.92.21,1,1,0,0,0-.42.34,1,1,0,0,0-.14.5.86.86,0,0,0,.32.7,1.35,1.35,0,0,0,.93.29,2.11,2.11,0,0,0,1.08-.27,1.64,1.64,0,0,0,.7-.73,2.44,2.44,0,0,0,.17-1Z" transform="translate(-177.38 -83.87)"/><path d="M261.43,167.62l-.12-1a2.43,2.43,0,0,0,.6.09,1.18,1.18,0,0,0,.57-.12.87.87,0,0,0,.34-.32,5.3,5.3,0,0,0,.32-.79c0-.06.05-.14.1-.26L260.88,159H262l1.3,3.6q.26.69.45,1.44a13.51,13.51,0,0,1,.43-1.41l1.33-3.63h1.06l-2.37,6.33a12.28,12.28,0,0,1-.59,1.41,2,2,0,0,1-.65.76,1.45,1.45,0,0,1-.86.25A2.25,2.25,0,0,1,261.43,167.62Z" transform="translate(-177.38 -83.87)"/><path d="M271.73,163.22l1.09.13a2.64,2.64,0,0,1-.95,1.48,3.24,3.24,0,0,1-3.95-.31,3.31,3.31,0,0,1-.8-2.36,3.41,3.41,0,0,1,.81-2.43,2.74,2.74,0,0,1,2.1-.87,2.66,2.66,0,0,1,2,.85,3.39,3.39,0,0,1,.79,2.39c0,.06,0,.15,0,.28h-4.64a2.38,2.38,0,0,0,.58,1.57,1.74,1.74,0,0,0,1.3.55,1.62,1.62,0,0,0,1-.31A2,2,0,0,0,271.73,163.22Zm-3.46-1.71h3.47a2.17,2.17,0,0,0-.39-1.18,1.65,1.65,0,0,0-1.31-.6,1.69,1.69,0,0,0-1.22.48A2,2,0,0,0,268.27,161.51Z" transform="translate(-177.38 -83.87)"/><path d="M274.14,165.22V159h.94v.94a2.6,2.6,0,0,1,.68-.87,1.16,1.16,0,0,1,.67-.21,2,2,0,0,1,1.09.34l-.37,1a1.41,1.41,0,0,0-.77-.23,1,1,0,0,0-.62.21,1,1,0,0,0-.39.57,4.06,4.06,0,0,0-.18,1.23v3.26Z" transform="translate(-177.38 -83.87)"/><path d="M278.27,165.22v-8.59h1.16l4.51,6.75v-6.75H285v8.59h-1.16l-4.51-6.75v6.75Z" transform="translate(-177.38 -83.87)"/><path d="M286.42,162.11a3.2,3.2,0,0,1,1-2.56,2.87,2.87,0,0,1,1.95-.69,2.79,2.79,0,0,1,2.1.84,3.16,3.16,0,0,1,.82,2.32,4.13,4.13,0,0,1-.36,1.89,2.52,2.52,0,0,1-1.05,1.07,3,3,0,0,1-1.51.38,2.79,2.79,0,0,1-2.11-.84A3.35,3.35,0,0,1,286.42,162.11Zm1.08,0a2.64,2.64,0,0,0,.52,1.79,1.73,1.73,0,0,0,2.62,0,2.71,2.71,0,0,0,.52-1.82,2.56,2.56,0,0,0-.52-1.75,1.67,1.67,0,0,0-1.31-.6,1.7,1.7,0,0,0-1.31.59A2.64,2.64,0,0,0,287.5,162.11Z" transform="translate(-177.38 -83.87)"/><path d="M293.47,165.22V159h.95v.94a2.6,2.6,0,0,1,.67-.87,1.19,1.19,0,0,1,.68-.21,2,2,0,0,1,1.08.34l-.36,1a1.46,1.46,0,0,0-.77-.23,1,1,0,0,0-.63.21,1.12,1.12,0,0,0-.39.57,4.07,4.07,0,0,0-.17,1.23v3.26Z" transform="translate(-177.38 -83.87)"/><path d="M297.48,165.22V159h.94v.87a2.27,2.27,0,0,1,.78-.73,2.18,2.18,0,0,1,1.11-.28,2,2,0,0,1,1.13.29,1.48,1.48,0,0,1,.63.8,2.22,2.22,0,0,1,1.92-1.09,1.88,1.88,0,0,1,1.42.51,2.2,2.2,0,0,1,.5,1.58v4.27h-1.05V161.3a2.87,2.87,0,0,0-.1-.91.94.94,0,0,0-.37-.45,1.2,1.2,0,0,0-.64-.17,1.49,1.49,0,0,0-1.09.44,2,2,0,0,0-.43,1.4v3.61h-1.05v-4a1.82,1.82,0,0,0-.26-1.06,1,1,0,0,0-.85-.35,1.51,1.51,0,0,0-.82.24,1.34,1.34,0,0,0-.55.68,4,4,0,0,0-.17,1.3v3.23Z" transform="translate(-177.38 -83.87)"/><rect class="cls-8" x="57.4" y="222.31" width="84.67" height="15.57" rx="3"/><path d="M240.76,318.5v-8.59h5.79v1H241.9v2.66h4v1h-4v3.9Z" transform="translate(-177.38 -83.87)"/><path d="M252.15,316.5l1.09.13a2.71,2.71,0,0,1-1,1.49,3.26,3.26,0,0,1-3.95-.32,3.29,3.29,0,0,1-.8-2.36,3.41,3.41,0,0,1,.81-2.43,2.74,2.74,0,0,1,2.1-.87,2.66,2.66,0,0,1,2,.85,3.36,3.36,0,0,1,.79,2.39c0,.06,0,.16,0,.28h-4.64a2.44,2.44,0,0,0,.58,1.57,1.74,1.74,0,0,0,1.3.55,1.62,1.62,0,0,0,1-.31A2,2,0,0,0,252.15,316.5Zm-3.46-1.71h3.48a2.1,2.1,0,0,0-.4-1.17,1.61,1.61,0,0,0-1.31-.61,1.69,1.69,0,0,0-1.22.48A2,2,0,0,0,248.69,314.79Z" transform="translate(-177.38 -83.87)"/><path d="M258.83,316.5l1.09.13a2.67,2.67,0,0,1-1,1.49,2.87,2.87,0,0,1-1.78.52,2.83,2.83,0,0,1-2.16-.84,3.25,3.25,0,0,1-.8-2.36A3.41,3.41,0,0,1,255,313a2.7,2.7,0,0,1,2.09-.87,2.63,2.63,0,0,1,2,.85,3.36,3.36,0,0,1,.79,2.39v.28h-4.64a2.38,2.38,0,0,0,.58,1.57,1.73,1.73,0,0,0,1.3.55,1.67,1.67,0,0,0,1-.31A2,2,0,0,0,258.83,316.5Zm-3.46-1.71h3.47a2.1,2.1,0,0,0-.4-1.17,1.59,1.59,0,0,0-1.3-.61,1.7,1.7,0,0,0-1.23.48A1.91,1.91,0,0,0,255.37,314.79Z" transform="translate(-177.38 -83.87)"/><path d="M265.28,318.5v-.78a1.94,1.94,0,0,1-1.74.92,2.4,2.4,0,0,1-1.37-.41,2.72,2.72,0,0,1-1-1.14,4.11,4.11,0,0,1-.34-1.69,4.54,4.54,0,0,1,.31-1.69,2.41,2.41,0,0,1,2.32-1.57,2,2,0,0,1,1,.24,2,2,0,0,1,.72.61v-3.08h1.05v8.59ZM262,315.4a2.66,2.66,0,0,0,.5,1.78,1.51,1.51,0,0,0,1.19.6,1.48,1.48,0,0,0,1.17-.57,2.57,2.57,0,0,0,.49-1.73,3,3,0,0,0-.49-1.87,1.53,1.53,0,0,0-1.22-.6,1.43,1.43,0,0,0-1.17.58A2.78,2.78,0,0,0,262,315.4Z" transform="translate(-177.38 -83.87)"/><path d="M271.44,318.5v-8.59h5.8v1h-4.66v2.66h4v1h-4v3.9Z" transform="translate(-177.38 -83.87)"/><path d="M278.19,315.39a3.22,3.22,0,0,1,1-2.56,2.9,2.9,0,0,1,2-.69,2.78,2.78,0,0,1,2.09.84,3.16,3.16,0,0,1,.82,2.32,4.13,4.13,0,0,1-.36,1.89,2.52,2.52,0,0,1-1.05,1.07,3,3,0,0,1-1.5.38,2.83,2.83,0,0,1-2.12-.83A3.4,3.4,0,0,1,278.19,315.39Zm1.08,0a2.69,2.69,0,0,0,.52,1.79,1.68,1.68,0,0,0,1.32.6,1.65,1.65,0,0,0,1.3-.6,2.71,2.71,0,0,0,.52-1.82,2.56,2.56,0,0,0-.52-1.75,1.65,1.65,0,0,0-1.3-.6,1.7,1.7,0,0,0-1.32.59A2.69,2.69,0,0,0,279.27,315.39Z" transform="translate(-177.38 -83.87)"/><path d="M285.24,318.5v-6.22h.95v.94a2.6,2.6,0,0,1,.67-.87,1.19,1.19,0,0,1,.68-.21,2,2,0,0,1,1.08.34l-.36,1a1.55,1.55,0,0,0-.77-.23,1,1,0,0,0-.62.21,1.12,1.12,0,0,0-.4.57,4.4,4.4,0,0,0-.17,1.23v3.26Z" transform="translate(-177.38 -83.87)"/><path d="M290.4,318.5l-1.91-6.22h1.09l1,3.59.37,1.34.33-1.29,1-3.64h1.08l.93,3.61.31,1.19.36-1.2,1.07-3.6h1l-1.94,6.22H294l-1-3.72-.24-1.06-1.26,4.78Z" transform="translate(-177.38 -83.87)"/><path d="M302,317.73a3.88,3.88,0,0,1-1.13.71,3.41,3.41,0,0,1-1.16.2,2.24,2.24,0,0,1-1.58-.5,1.64,1.64,0,0,1-.55-1.28,1.77,1.77,0,0,1,.75-1.44,2.78,2.78,0,0,1,.76-.35,8.89,8.89,0,0,1,.94-.15,10.24,10.24,0,0,0,1.88-.37c0-.14,0-.23,0-.27a1.17,1.17,0,0,0-.3-.91,1.76,1.76,0,0,0-1.2-.36,1.87,1.87,0,0,0-1.1.26,1.63,1.63,0,0,0-.53.93l-1-.14a2.51,2.51,0,0,1,.46-1.07,2,2,0,0,1,.94-.63,4,4,0,0,1,1.41-.22,3.58,3.58,0,0,1,1.29.19,1.62,1.62,0,0,1,.73.47,1.6,1.6,0,0,1,.33.72,5.19,5.19,0,0,1,.06,1v1.41a16.75,16.75,0,0,0,.06,1.86,2.54,2.54,0,0,0,.27.74h-1.1A2.17,2.17,0,0,1,302,317.73Zm-.09-2.35a7.56,7.56,0,0,1-1.72.4,3.7,3.7,0,0,0-.92.21,1,1,0,0,0-.42.34.89.89,0,0,0-.15.5.93.93,0,0,0,.32.71,1.44,1.44,0,0,0,.94.28,2.14,2.14,0,0,0,1.08-.27,1.64,1.64,0,0,0,.7-.73,2.6,2.6,0,0,0,.17-1.05Z" transform="translate(-177.38 -83.87)"/><path d="M304.58,318.5v-6.22h.95v.94a2.48,2.48,0,0,1,.67-.87,1.16,1.16,0,0,1,.68-.21,2,2,0,0,1,1.08.34l-.36,1a1.56,1.56,0,0,0-.78-.23,1,1,0,0,0-.62.21,1.17,1.17,0,0,0-.39.57,4.06,4.06,0,0,0-.18,1.23v3.26Z" transform="translate(-177.38 -83.87)"/><path d="M312.62,318.5v-.78a1.94,1.94,0,0,1-1.74.92,2.36,2.36,0,0,1-1.36-.41,2.65,2.65,0,0,1-1-1.14,4,4,0,0,1-.34-1.69,4.35,4.35,0,0,1,.31-1.69,2.37,2.37,0,0,1,.93-1.17,2.46,2.46,0,0,1,1.39-.4,2.05,2.05,0,0,1,1,.24,2,2,0,0,1,.71.61v-3.08h1.05v8.59Zm-3.33-3.1a2.72,2.72,0,0,0,.5,1.78,1.53,1.53,0,0,0,1.19.6,1.5,1.5,0,0,0,1.18-.57,2.63,2.63,0,0,0,.48-1.73,2.91,2.91,0,0,0-.49-1.87,1.51,1.51,0,0,0-1.21-.6,1.46,1.46,0,0,0-1.18.58A2.84,2.84,0,0,0,309.29,315.4Z" transform="translate(-177.38 -83.87)"/><path class="cls-2" d="M277,128.52v9.19a3,3,0,0,1-3,3H220.69a3,3,0,0,0-3,3V242.8a3,3,0,0,0,3,3h45.76" transform="translate(-177.38 -83.87)"/><polygon points="88.08 163.37 93.5 161.92 88.08 160.47 88.08 163.37"/><line class="cls-2" x1="99.63" y1="24.9" x2="99.63" y2="64.6"/><polygon points="98.18 63.61 99.63 69.03 101.08 63.61 98.18 63.61"/><rect class="cls-7" x="57.29" y="192.92" width="84.67" height="15.57" rx="3"/><path d="M248.21,289.11v-8.59h1.14v7.58h4.23v1Z" transform="translate(-177.38 -83.87)"/><path d="M258.86,288.34a4.1,4.1,0,0,1-1.13.71,3.41,3.41,0,0,1-1.16.2,2.3,2.3,0,0,1-1.58-.5,1.67,1.67,0,0,1-.55-1.28,1.73,1.73,0,0,1,.75-1.44,2.78,2.78,0,0,1,.76-.35c.21-.05.52-.1.94-.16a9.59,9.59,0,0,0,1.88-.36c0-.14,0-.24,0-.27a1.16,1.16,0,0,0-.3-.91,1.76,1.76,0,0,0-1.2-.36,1.9,1.9,0,0,0-1.1.26,1.6,1.6,0,0,0-.53.92l-1-.14a2.64,2.64,0,0,1,.47-1.07A1.93,1.93,0,0,1,256,283a4.05,4.05,0,0,1,1.41-.22,4,4,0,0,1,1.3.18,1.51,1.51,0,0,1,1.06,1.19,6.84,6.84,0,0,1,0,1v1.4a13.75,13.75,0,0,0,.07,1.86,2.31,2.31,0,0,0,.26.75h-1.1A2.17,2.17,0,0,1,258.86,288.34Zm-.09-2.35a8.14,8.14,0,0,1-1.72.4,3.82,3.82,0,0,0-.92.21.89.89,0,0,0-.42.34,1,1,0,0,0-.14.5.86.86,0,0,0,.32.7,1.34,1.34,0,0,0,.93.28,2.11,2.11,0,0,0,1.08-.26,1.64,1.64,0,0,0,.7-.73,2.46,2.46,0,0,0,.17-1.06Z" transform="translate(-177.38 -83.87)"/><path d="M261.43,291.51l-.12-1a2.43,2.43,0,0,0,.6.09,1.18,1.18,0,0,0,.57-.12.87.87,0,0,0,.34-.32,5.3,5.3,0,0,0,.32-.79l.1-.26-2.36-6.23H262l1.3,3.6q.26.69.45,1.44a14.47,14.47,0,0,1,.43-1.42l1.33-3.62h1.06l-2.37,6.33a12.28,12.28,0,0,1-.59,1.41,2,2,0,0,1-.65.76,1.53,1.53,0,0,1-.86.25A2.25,2.25,0,0,1,261.43,291.51Z" transform="translate(-177.38 -83.87)"/><path d="M271.73,287.11l1.09.13a2.64,2.64,0,0,1-.95,1.48,3.24,3.24,0,0,1-3.95-.31,3.31,3.31,0,0,1-.8-2.36,3.44,3.44,0,0,1,.81-2.44,2.77,2.77,0,0,1,2.1-.86,2.66,2.66,0,0,1,2,.85,3.39,3.39,0,0,1,.79,2.39c0,.06,0,.15,0,.28h-4.64a2.38,2.38,0,0,0,.58,1.57,1.74,1.74,0,0,0,1.3.54,1.62,1.62,0,0,0,1-.3A2,2,0,0,0,271.73,287.11Zm-3.46-1.71h3.47a2.17,2.17,0,0,0-.39-1.18,1.65,1.65,0,0,0-1.31-.61,1.7,1.7,0,0,0-1.22.49A1.94,1.94,0,0,0,268.27,285.4Z" transform="translate(-177.38 -83.87)"/><path d="M274.14,289.11v-6.22h.94v.94a2.6,2.6,0,0,1,.68-.87,1.16,1.16,0,0,1,.67-.21,2,2,0,0,1,1.09.34l-.37,1a1.41,1.41,0,0,0-.77-.23,1,1,0,0,0-.62.2,1.08,1.08,0,0,0-.39.58,4.06,4.06,0,0,0-.18,1.23v3.26Z" transform="translate(-177.38 -83.87)"/><path d="M278.27,289.11v-8.59h1.16l4.51,6.74v-6.74H285v8.59h-1.16l-4.51-6.75v6.75Z" transform="translate(-177.38 -83.87)"/><path d="M286.42,286a3.2,3.2,0,0,1,1-2.56,2.87,2.87,0,0,1,1.95-.69,2.79,2.79,0,0,1,2.1.84,3.16,3.16,0,0,1,.82,2.32,4.13,4.13,0,0,1-.36,1.89,2.52,2.52,0,0,1-1.05,1.07,3.11,3.11,0,0,1-1.51.38,2.79,2.79,0,0,1-2.11-.84A3.37,3.37,0,0,1,286.42,286Zm1.08,0a2.64,2.64,0,0,0,.52,1.79,1.66,1.66,0,0,0,1.31.59,1.68,1.68,0,0,0,1.31-.59,2.72,2.72,0,0,0,.52-1.83,2.58,2.58,0,0,0-.52-1.75,1.75,1.75,0,0,0-2.62,0A2.64,2.64,0,0,0,287.5,286Z" transform="translate(-177.38 -83.87)"/><path d="M293.47,289.11v-6.22h.95v.94a2.6,2.6,0,0,1,.67-.87,1.19,1.19,0,0,1,.68-.21,2,2,0,0,1,1.08.34l-.36,1a1.46,1.46,0,0,0-.77-.23,1.07,1.07,0,0,0-.63.2,1.2,1.2,0,0,0-.39.58,4.07,4.07,0,0,0-.17,1.23v3.26Z" transform="translate(-177.38 -83.87)"/><path d="M297.48,289.11v-6.22h.94v.87a2.27,2.27,0,0,1,.78-.73,2.18,2.18,0,0,1,1.11-.28,2,2,0,0,1,1.13.28,1.54,1.54,0,0,1,.63.81,2.22,2.22,0,0,1,1.92-1.09,1.88,1.88,0,0,1,1.42.51,2.2,2.2,0,0,1,.5,1.58v4.27h-1.05v-3.92a2.83,2.83,0,0,0-.1-.91.86.86,0,0,0-.37-.45,1.2,1.2,0,0,0-.64-.17,1.49,1.49,0,0,0-1.09.44,2,2,0,0,0-.43,1.4v3.61h-1.05v-4a1.82,1.82,0,0,0-.26-1.06,1,1,0,0,0-.85-.35,1.51,1.51,0,0,0-.82.24,1.34,1.34,0,0,0-.55.68,4,4,0,0,0-.17,1.3v3.23Z" transform="translate(-177.38 -83.87)"/><line class="cls-2" x1="99.63" y1="237.88" x2="99.63" y2="247.14"/><polygon points="98.18 246.15 99.63 251.57 101.08 246.15 98.18 246.15"/><g id="add-5" data-name="add"><circle class="cls-6" cx="99.63" cy="257.69" r="6.13"/><line class="cls-6" x1="95.45" y1="257.69" x2="104.03" y2="257.69"/><line class="cls-6" x1="99.63" y1="253.4" x2="99.63" y2="261.98"/></g><path class="cls-2" d="M277,276.31V251.92l-.09,9.23a3,3,0,0,1-3,3H220.72a3,3,0,0,0-3,3v71.45a3,3,0,0,0,3,3h45.7" transform="translate(-177.38 -83.87)"/><polygon points="88.05 259.15 93.47 257.69 88.05 256.24 88.05 259.15"/><rect class="cls-9" x="57.29" y="108.99" width="84.67" height="33" rx="3"/><path d="M253.31,220.25l3.3-8.59h1.22l3.52,8.59h-1.3l-1-2.6h-3.59l-.94,2.6Zm2.48-3.53h2.91l-.9-2.38c-.27-.72-.47-1.31-.61-1.78a10.84,10.84,0,0,1-.46,1.64Z" transform="translate(-177.38 -83.87)"/><path d="M264.42,219.31l.16.93a4.16,4.16,0,0,1-.8.09,1.82,1.82,0,0,1-.89-.18,1,1,0,0,1-.45-.48,3.88,3.88,0,0,1-.13-1.24v-3.58h-.77V214h.77v-1.54l1.05-.64V214h1.06v.82h-1.06v3.64a1.73,1.73,0,0,0,.06.58.49.49,0,0,0,.18.2.69.69,0,0,0,.36.08C264.08,219.35,264.23,219.33,264.42,219.31Z" transform="translate(-177.38 -83.87)"/><path d="M267.76,219.31l.15.93a4.08,4.08,0,0,1-.8.09,1.82,1.82,0,0,1-.89-.18,1,1,0,0,1-.44-.48,3.6,3.6,0,0,1-.13-1.24v-3.58h-.78V214h.78v-1.54l1.05-.64V214h1.06v.82H266.7v3.64a2.2,2.2,0,0,0,.05.58.49.49,0,0,0,.18.2.74.74,0,0,0,.36.08C267.41,219.35,267.57,219.33,267.76,219.31Z" transform="translate(-177.38 -83.87)"/><path d="M273.05,218.25l1.09.13a2.61,2.61,0,0,1-1,1.48,3.22,3.22,0,0,1-3.94-.31,3.26,3.26,0,0,1-.8-2.36,3.46,3.46,0,0,1,.81-2.44,2.73,2.73,0,0,1,2.09-.86,2.64,2.64,0,0,1,2,.85,3.35,3.35,0,0,1,.79,2.39v.28h-4.64a2.38,2.38,0,0,0,.58,1.57,1.72,1.72,0,0,0,1.3.54,1.66,1.66,0,0,0,1-.3A2,2,0,0,0,273.05,218.25Zm-3.46-1.71h3.47a2.17,2.17,0,0,0-.4-1.18,1.63,1.63,0,0,0-1.31-.61,1.7,1.7,0,0,0-1.22.49A1.91,1.91,0,0,0,269.59,216.54Z" transform="translate(-177.38 -83.87)"/><path d="M275.46,220.25V214h1v.88a2.25,2.25,0,0,1,2-1,2.71,2.71,0,0,1,1,.2,1.55,1.55,0,0,1,.7.53,2,2,0,0,1,.33.78,5.85,5.85,0,0,1,.06,1v3.83h-1.06v-3.78a2.94,2.94,0,0,0-.12-1,1,1,0,0,0-.44-.51,1.41,1.41,0,0,0-.73-.19,1.67,1.67,0,0,0-1.16.43,2.09,2.09,0,0,0-.49,1.62v3.4Z" transform="translate(-177.38 -83.87)"/><path d="M284.44,219.31l.15.93a4.08,4.08,0,0,1-.8.09,1.82,1.82,0,0,1-.89-.18,1,1,0,0,1-.44-.48,3.6,3.6,0,0,1-.13-1.24v-3.58h-.77V214h.77v-1.54l1.05-.64V214h1.06v.82h-1.06v3.64a2.2,2.2,0,0,0,.05.58.46.46,0,0,0,.19.2.69.69,0,0,0,.36.08Z" transform="translate(-177.38 -83.87)"/><path d="M285.48,212.87v-1.21h1v1.21Zm0,7.38V214h1v6.22Z" transform="translate(-177.38 -83.87)"/><path d="M287.74,217.14a3.2,3.2,0,0,1,1-2.56,2.91,2.91,0,0,1,2-.69,2.79,2.79,0,0,1,2.1.84,3.2,3.2,0,0,1,.81,2.32,4.13,4.13,0,0,1-.36,1.89,2.52,2.52,0,0,1-1,1.07,3.07,3.07,0,0,1-1.5.38,2.79,2.79,0,0,1-2.11-.84A3.31,3.31,0,0,1,287.74,217.14Zm1.09,0a2.64,2.64,0,0,0,.52,1.79,1.75,1.75,0,0,0,2.62,0,2.72,2.72,0,0,0,.52-1.83,2.58,2.58,0,0,0-.52-1.74,1.74,1.74,0,0,0-2.62,0A2.64,2.64,0,0,0,288.83,217.14Z" transform="translate(-177.38 -83.87)"/><path d="M294.81,220.25V214h.95v.88a2.25,2.25,0,0,1,2-1,2.66,2.66,0,0,1,1,.2,1.58,1.58,0,0,1,.71.53,2,2,0,0,1,.33.78,5.85,5.85,0,0,1,.06,1v3.83h-1.06v-3.78a2.94,2.94,0,0,0-.12-1,1,1,0,0,0-.44-.51,1.44,1.44,0,0,0-.73-.19,1.71,1.71,0,0,0-1.17.43,2.13,2.13,0,0,0-.49,1.62v3.4Z" transform="translate(-177.38 -83.87)"/><path d="M274,207.26v-8.59h1.14v4.26l4.26-4.26h1.54l-3.6,3.48,3.76,5.11h-1.5l-3.06-4.35-1.4,1.38v3Z" transform="translate(-177.38 -83.87)"/><path d="M308.92,206.34a7,7,0,0,0,1.46.8l-.33.79a6.7,6.7,0,0,1-1.85-1.05,4.29,4.29,0,0,1-2.11.53,4.11,4.11,0,0,1-2.11-.56,3.81,3.81,0,0,1-1.46-1.59A4.92,4.92,0,0,1,302,203a5.23,5.23,0,0,1,.52-2.32,3.65,3.65,0,0,1,1.47-1.59,4.22,4.22,0,0,1,2.13-.54,4.1,4.1,0,0,1,2.14.57,3.66,3.66,0,0,1,1.46,1.58,5.17,5.17,0,0,1,.5,2.29,5.46,5.46,0,0,1-.32,1.91A4,4,0,0,1,308.92,206.34Zm-2.5-1.45a4.12,4.12,0,0,1,1.62.82,3.54,3.54,0,0,0,1-2.75,4.31,4.31,0,0,0-.36-1.82,2.68,2.68,0,0,0-1-1.21,2.76,2.76,0,0,0-1.53-.43,2.81,2.81,0,0,0-2.11.87,3.6,3.6,0,0,0-.83,2.6,3.67,3.67,0,0,0,.82,2.57,2.77,2.77,0,0,0,2.12.9,3,3,0,0,0,1.15-.23,3.48,3.48,0,0,0-1.12-.49Z" transform="translate(-177.38 -83.87)"/><path d="M245.36,207.26,242,198.67h1.23l2.23,6.24q.27.75.45,1.41c.13-.47.29-.94.46-1.41l2.32-6.24h1.16l-3.36,8.59Z" transform="translate(-177.38 -83.87)"/><path class="cls-2" d="M277,347.7l0,15.35a3,3,0,0,0,3,3h73.95a3,3,0,0,0,3-3V313.43a3,3,0,0,1,3-3h29a3,3,0,0,1,3,3v3.67" transform="translate(-177.38 -83.87)"/><polygon points="213.07 232.24 214.53 237.66 215.98 232.24 213.07 232.24"/><line class="cls-10" x1="172.26" y1="11.42" x2="172.26" y2="432.6"/><path d="M255.72,103V94.38h6.21v1h-5.07V98h4.75v1h-4.75V102h5.27v1Z" transform="translate(-177.38 -83.87)"/><path d="M263.57,103V96.74h.95v.89a2.23,2.23,0,0,1,2-1,2.5,2.5,0,0,1,1,.21,1.58,1.58,0,0,1,.71.53,2,2,0,0,1,.33.77,6,6,0,0,1,.06,1V103h-1.06V99.18a2.87,2.87,0,0,0-.12-1,1,1,0,0,0-.44-.51,1.35,1.35,0,0,0-.73-.19,1.75,1.75,0,0,0-1.17.42,2.16,2.16,0,0,0-.49,1.63V103Z" transform="translate(-177.38 -83.87)"/><path d="M274.3,100.69l1,.13a2.64,2.64,0,0,1-.87,1.68,2.56,2.56,0,0,1-1.72.61,2.65,2.65,0,0,1-2.05-.84,3.36,3.36,0,0,1-.78-2.39,4.44,4.44,0,0,1,.33-1.77,2.4,2.4,0,0,1,1-1.13,3.06,3.06,0,0,1,1.49-.38,2.56,2.56,0,0,1,1.66.52,2.36,2.36,0,0,1,.82,1.45l-1,.16a1.69,1.69,0,0,0-.52-.94,1.36,1.36,0,0,0-.9-.32,1.65,1.65,0,0,0-1.3.57,2.72,2.72,0,0,0-.5,1.81,2.79,2.79,0,0,0,.49,1.82,1.55,1.55,0,0,0,1.25.57,1.51,1.51,0,0,0,1-.38A1.93,1.93,0,0,0,274.3,100.69Z" transform="translate(-177.38 -83.87)"/><path d="M275.85,99.85a3.22,3.22,0,0,1,1-2.56,2.91,2.91,0,0,1,2-.69,2.82,2.82,0,0,1,2.1.84,3.22,3.22,0,0,1,.81,2.33,4.13,4.13,0,0,1-.36,1.89,2.58,2.58,0,0,1-1.05,1.07,3.1,3.1,0,0,1-1.5.38,2.78,2.78,0,0,1-2.11-.84A3.34,3.34,0,0,1,275.85,99.85Zm1.08,0a2.67,2.67,0,0,0,.53,1.8,1.74,1.74,0,0,0,2.62,0,2.74,2.74,0,0,0,.52-1.82,2.58,2.58,0,0,0-.53-1.75,1.74,1.74,0,0,0-2.61,0A2.61,2.61,0,0,0,276.93,99.85Z" transform="translate(-177.38 -83.87)"/><path d="M287,103v-.79a1.92,1.92,0,0,1-1.74.93,2.44,2.44,0,0,1-1.36-.41,2.74,2.74,0,0,1-1-1.15,3.92,3.92,0,0,1-.34-1.69,4.39,4.39,0,0,1,.31-1.69,2.35,2.35,0,0,1,.93-1.16,2.49,2.49,0,0,1,1.39-.41,2.05,2.05,0,0,1,1,.24,2,2,0,0,1,.71.62V94.38h1.05V103Zm-3.33-3.11a2.75,2.75,0,0,0,.5,1.79,1.55,1.55,0,0,0,1.19.59,1.5,1.5,0,0,0,1.18-.57A2.6,2.6,0,0,0,287,100a2.94,2.94,0,0,0-.49-1.88,1.53,1.53,0,0,0-1.21-.59,1.48,1.48,0,0,0-1.18.57A2.86,2.86,0,0,0,283.62,99.86Z" transform="translate(-177.38 -83.87)"/><path d="M293.85,101l1.09.14a2.68,2.68,0,0,1-.95,1.48,2.9,2.9,0,0,1-1.79.53,2.83,2.83,0,0,1-2.16-.84,3.31,3.31,0,0,1-.8-2.36,3.44,3.44,0,0,1,.81-2.44,2.74,2.74,0,0,1,2.1-.87,2.66,2.66,0,0,1,2,.85,3.38,3.38,0,0,1,.8,2.39c0,.07,0,.16,0,.28h-4.64a2.36,2.36,0,0,0,.58,1.57,1.71,1.71,0,0,0,1.3.55,1.62,1.62,0,0,0,1-.3A2.08,2.08,0,0,0,293.85,101Zm-3.46-1.7h3.47a2,2,0,0,0-.4-1.18,1.59,1.59,0,0,0-1.3-.61,1.64,1.64,0,0,0-1.22.49A1.88,1.88,0,0,0,290.39,99.26Z" transform="translate(-177.38 -83.87)"/><path d="M296.25,103V96.74h.95v1a2.66,2.66,0,0,1,.67-.88,1.19,1.19,0,0,1,.68-.21,2.07,2.07,0,0,1,1.08.34l-.36,1a1.55,1.55,0,0,0-.77-.23,1,1,0,0,0-.62.21,1.11,1.11,0,0,0-.4.58,4.3,4.3,0,0,0-.17,1.23V103Z" transform="translate(-177.38 -83.87)"/><path d="M256.34,377.12v-8.59h1.72l2,6.08c.19.57.32,1,.41,1.27.1-.31.25-.77.46-1.37l2.05-6h1.53v8.59h-1.09v-7.19l-2.5,7.19h-1l-2.48-7.31v7.31Z" transform="translate(-177.38 -83.87)"/><path d="M270.5,375.12l1.09.13a2.64,2.64,0,0,1-.95,1.48,3.24,3.24,0,0,1-3.95-.31,3.31,3.31,0,0,1-.8-2.36,3.46,3.46,0,0,1,.81-2.44,2.77,2.77,0,0,1,2.1-.86,2.62,2.62,0,0,1,2,.85,3.35,3.35,0,0,1,.8,2.39c0,.06,0,.15,0,.28H267a2.38,2.38,0,0,0,.58,1.57,1.74,1.74,0,0,0,1.3.54,1.62,1.62,0,0,0,1-.3A2,2,0,0,0,270.5,375.12ZM267,373.41h3.47a2.09,2.09,0,0,0-.4-1.18,1.62,1.62,0,0,0-1.3-.61,1.68,1.68,0,0,0-1.22.49A1.92,1.92,0,0,0,267,373.41Z" transform="translate(-177.38 -83.87)"/><path d="M272.91,377.12V370.9h.95v.87a2.21,2.21,0,0,1,1.88-1,2.07,2.07,0,0,1,1.14.28,1.58,1.58,0,0,1,.62.81,2.23,2.23,0,0,1,1.92-1.09,1.91,1.91,0,0,1,1.43.51,2.2,2.2,0,0,1,.5,1.58v4.27H280.3V373.2a2.81,2.81,0,0,0-.11-.91.82.82,0,0,0-.37-.45,1.19,1.19,0,0,0-.63-.17,1.48,1.48,0,0,0-1.09.44,1.91,1.91,0,0,0-.43,1.4v3.61h-1.06v-4a1.75,1.75,0,0,0-.26-1.06,1,1,0,0,0-.84-.35,1.48,1.48,0,0,0-.82.24,1.29,1.29,0,0,0-.55.68,4,4,0,0,0-.17,1.3v3.23Z" transform="translate(-177.38 -83.87)"/><path d="M282.52,374a3.2,3.2,0,0,1,1-2.56,2.9,2.9,0,0,1,2-.69,2.78,2.78,0,0,1,2.09.84,3.16,3.16,0,0,1,.82,2.32,4.13,4.13,0,0,1-.36,1.89,2.52,2.52,0,0,1-1.05,1.07,3.1,3.1,0,0,1-1.5.38,2.8,2.8,0,0,1-2.12-.84A3.37,3.37,0,0,1,282.52,374Zm1.08,0a2.69,2.69,0,0,0,.52,1.79,1.75,1.75,0,0,0,2.62,0,2.72,2.72,0,0,0,.52-1.83,2.53,2.53,0,0,0-.52-1.74,1.65,1.65,0,0,0-1.3-.6,1.7,1.7,0,0,0-1.32.59A2.69,2.69,0,0,0,283.6,374Z" transform="translate(-177.38 -83.87)"/><path d="M289.57,377.12V370.9h.95v.94a2.6,2.6,0,0,1,.67-.87,1.19,1.19,0,0,1,.68-.21,2,2,0,0,1,1.08.34l-.36,1a1.46,1.46,0,0,0-.77-.23,1,1,0,0,0-.62.21,1.08,1.08,0,0,0-.4.57,4.4,4.4,0,0,0-.17,1.23v3.26Z" transform="translate(-177.38 -83.87)"/><path d="M293.53,379.52l-.11-1a2.43,2.43,0,0,0,.6.09,1.13,1.13,0,0,0,.56-.12.89.89,0,0,0,.35-.32,6.77,6.77,0,0,0,.32-.79l.09-.26L293,370.9h1.14l1.29,3.6c.17.46.32.94.46,1.44a14.47,14.47,0,0,1,.43-1.42l1.33-3.62h1.05l-2.36,6.33a14.47,14.47,0,0,1-.59,1.41,2.08,2.08,0,0,1-.65.76,1.54,1.54,0,0,1-.87.25A2.31,2.31,0,0,1,293.53,379.52Z" transform="translate(-177.38 -83.87)"/><path d="M399.93,103V94.38h3a7.34,7.34,0,0,1,1.53.12,3,3,0,0,1,1.26.61,3.56,3.56,0,0,1,1,1.47,5.67,5.67,0,0,1,.34,2,6.11,6.11,0,0,1-.23,1.74,4.4,4.4,0,0,1-.58,1.25,3.07,3.07,0,0,1-.79.78,3.17,3.17,0,0,1-1,.43A5.72,5.72,0,0,1,403,103Zm1.14-1h1.83a4.25,4.25,0,0,0,1.33-.16,1.86,1.86,0,0,0,.77-.44,2.68,2.68,0,0,0,.63-1.09,5.25,5.25,0,0,0,.23-1.65,4,4,0,0,0-.44-2.07,2.21,2.21,0,0,0-1.08-1,4.31,4.31,0,0,0-1.47-.18h-1.8Z" transform="translate(-177.38 -83.87)"/><path d="M412.72,101l1.09.14a2.64,2.64,0,0,1-1,1.48,3.22,3.22,0,0,1-3.94-.31,3.31,3.31,0,0,1-.8-2.36,3.44,3.44,0,0,1,.81-2.44A2.73,2.73,0,0,1,411,96.6a2.66,2.66,0,0,1,2,.85,3.38,3.38,0,0,1,.79,2.39v.28H409.2a2.36,2.36,0,0,0,.58,1.57,1.71,1.71,0,0,0,1.3.55,1.62,1.62,0,0,0,1-.3A2.08,2.08,0,0,0,412.72,101Zm-3.46-1.7h3.47a2.11,2.11,0,0,0-.4-1.18,1.59,1.59,0,0,0-1.3-.61,1.67,1.67,0,0,0-1.23.49A1.87,1.87,0,0,0,409.26,99.26Z" transform="translate(-177.38 -83.87)"/><path d="M419.19,100.69l1,.13a2.64,2.64,0,0,1-.87,1.68,2.56,2.56,0,0,1-1.72.61,2.66,2.66,0,0,1-2.05-.84,3.36,3.36,0,0,1-.78-2.39,4.27,4.27,0,0,1,.34-1.77,2.33,2.33,0,0,1,1-1.13,3.06,3.06,0,0,1,1.49-.38,2.56,2.56,0,0,1,1.66.52,2.31,2.31,0,0,1,.82,1.45l-1,.16a1.69,1.69,0,0,0-.52-.94,1.36,1.36,0,0,0-.9-.32,1.66,1.66,0,0,0-1.3.57,2.72,2.72,0,0,0-.49,1.81,2.79,2.79,0,0,0,.48,1.82,1.55,1.55,0,0,0,1.25.57,1.51,1.51,0,0,0,1-.38A1.93,1.93,0,0,0,419.19,100.69Z" transform="translate(-177.38 -83.87)"/><path d="M420.74,99.85a3.22,3.22,0,0,1,1-2.56,2.91,2.91,0,0,1,2-.69,2.82,2.82,0,0,1,2.1.84,3.22,3.22,0,0,1,.81,2.33,4.13,4.13,0,0,1-.36,1.89,2.58,2.58,0,0,1-1,1.07,3.1,3.1,0,0,1-1.5.38,2.78,2.78,0,0,1-2.11-.84A3.34,3.34,0,0,1,420.74,99.85Zm1.09,0a2.67,2.67,0,0,0,.52,1.8,1.74,1.74,0,0,0,2.62,0,2.74,2.74,0,0,0,.52-1.82,2.58,2.58,0,0,0-.53-1.75,1.74,1.74,0,0,0-2.61,0A2.61,2.61,0,0,0,421.83,99.85Z" transform="translate(-177.38 -83.87)"/><path d="M431.84,103v-.79a1.92,1.92,0,0,1-1.74.93,2.44,2.44,0,0,1-1.36-.41,2.74,2.74,0,0,1-1-1.15,3.92,3.92,0,0,1-.34-1.69,4.39,4.39,0,0,1,.31-1.69,2.35,2.35,0,0,1,.93-1.16,2.49,2.49,0,0,1,1.39-.41,2.05,2.05,0,0,1,1,.24,2,2,0,0,1,.71.62V94.38h1.05V103Zm-3.33-3.11a2.75,2.75,0,0,0,.5,1.79,1.55,1.55,0,0,0,1.19.59,1.48,1.48,0,0,0,1.18-.57,2.6,2.6,0,0,0,.48-1.72,2.94,2.94,0,0,0-.49-1.88,1.53,1.53,0,0,0-1.21-.59,1.48,1.48,0,0,0-1.18.57A2.86,2.86,0,0,0,428.51,99.86Z" transform="translate(-177.38 -83.87)"/><path d="M438.74,101l1.09.14a2.68,2.68,0,0,1-.95,1.48,2.9,2.9,0,0,1-1.79.53,2.83,2.83,0,0,1-2.16-.84,3.31,3.31,0,0,1-.8-2.36,3.44,3.44,0,0,1,.81-2.44,2.74,2.74,0,0,1,2.1-.87,2.69,2.69,0,0,1,2,.85,3.43,3.43,0,0,1,.79,2.39c0,.07,0,.16,0,.28h-4.64a2.36,2.36,0,0,0,.58,1.57,1.71,1.71,0,0,0,1.3.55,1.62,1.62,0,0,0,1-.3A2.08,2.08,0,0,0,438.74,101Zm-3.46-1.7h3.47a2,2,0,0,0-.4-1.18,1.59,1.59,0,0,0-1.3-.61,1.64,1.64,0,0,0-1.22.49A1.88,1.88,0,0,0,435.28,99.26Z" transform="translate(-177.38 -83.87)"/><path d="M441.14,103V96.74h.95v1a2.66,2.66,0,0,1,.67-.88,1.19,1.19,0,0,1,.68-.21,2.07,2.07,0,0,1,1.08.34l-.36,1a1.52,1.52,0,0,0-.77-.23,1,1,0,0,0-.62.21,1.11,1.11,0,0,0-.4.58,4.3,4.3,0,0,0-.17,1.23V103Z" transform="translate(-177.38 -83.87)"/><path d="M187.88,244.73v-8.59h1.17l4.51,6.74v-6.74h1.09v8.59h-1.17L189,238v6.75Z" transform="translate(-177.38 -83.87)"/><path d="M195.72,244.73,198,241.5l-2.11-3h1.32l1,1.46c.18.27.32.51.43.69l.47-.68,1.05-1.47h1.26l-2.15,2.93,2.32,3.29h-1.3L199,242.8l-.34-.52L197,244.73Z" transform="translate(-177.38 -83.87)"/><path d="M498.19,297.28v-8.59h1.17l4.51,6.75v-6.75H505v8.59h-1.17l-4.51-6.75v6.75Z" transform="translate(-177.38 -83.87)"/><path d="M506,297.28l2.27-3.23-2.1-3h1.32l1,1.46c.18.28.33.51.44.7.17-.26.33-.49.47-.69l1.05-1.47h1.26L509.54,294l2.31,3.29h-1.29l-1.28-1.93-.34-.52-1.63,2.45Z" transform="translate(-177.38 -83.87)"/><path d="M188.81,503.38v-8.59h3.24a7.24,7.24,0,0,1,1.3.08,2.53,2.53,0,0,1,1.06.4,2,2,0,0,1,.69.83,2.51,2.51,0,0,1,.26,1.17,2.64,2.64,0,0,1-.69,1.85,3.34,3.34,0,0,1-2.52.76h-2.21v3.5Zm1.13-4.51h2.22a2.38,2.38,0,0,0,1.57-.41,1.46,1.46,0,0,0,.46-1.16,1.58,1.58,0,0,0-.27-.92,1.27,1.27,0,0,0-.72-.5,4.23,4.23,0,0,0-1.06-.08h-2.2Z" transform="translate(-177.38 -83.87)"/><path d="M196.66,503.38v-6.23h1v1a2.56,2.56,0,0,1,.67-.88A1.19,1.19,0,0,1,199,497a2,2,0,0,1,1.08.34l-.36,1a1.52,1.52,0,0,0-.77-.23,1,1,0,0,0-.62.21,1.11,1.11,0,0,0-.4.58,4.3,4.3,0,0,0-.17,1.23v3.26Z" transform="translate(-177.38 -83.87)"/><path d="M204.93,501.37l1.09.14a2.68,2.68,0,0,1-1,1.48,2.9,2.9,0,0,1-1.79.53,2.8,2.8,0,0,1-2.16-.85,3.28,3.28,0,0,1-.8-2.35,3.44,3.44,0,0,1,.81-2.44,2.74,2.74,0,0,1,2.1-.87,2.66,2.66,0,0,1,2,.85,3.41,3.41,0,0,1,.79,2.39c0,.06,0,.16,0,.28h-4.64a2.36,2.36,0,0,0,.58,1.57,1.71,1.71,0,0,0,1.3.55,1.56,1.56,0,0,0,1-.31A2,2,0,0,0,204.93,501.37Zm-3.46-1.7h3.47a2,2,0,0,0-.4-1.18,1.59,1.59,0,0,0-1.3-.61,1.64,1.64,0,0,0-1.22.49A1.88,1.88,0,0,0,201.47,499.67Z" transform="translate(-177.38 -83.87)"/><path d="M206.94,500.8v-1.06h3.24v1.06Z" transform="translate(-177.38 -83.87)"/><path d="M211.34,503.38v-6.23h.95V498a2.23,2.23,0,0,1,2-1,2.71,2.71,0,0,1,1,.2,1.78,1.78,0,0,1,.7.53,2,2,0,0,1,.33.78,6,6,0,0,1,.06,1v3.83h-1.06v-3.79a2.87,2.87,0,0,0-.12-1,1,1,0,0,0-.44-.51,1.35,1.35,0,0,0-.73-.19,1.71,1.71,0,0,0-1.16.42,2.12,2.12,0,0,0-.49,1.63v3.4Z" transform="translate(-177.38 -83.87)"/><path d="M217.62,500.26a3.22,3.22,0,0,1,1-2.56,2.91,2.91,0,0,1,2-.69,2.79,2.79,0,0,1,2.1.84,3.22,3.22,0,0,1,.81,2.33,4.13,4.13,0,0,1-.36,1.89,2.55,2.55,0,0,1-1.05,1.06,3,3,0,0,1-1.5.39,2.79,2.79,0,0,1-2.11-.84A3.35,3.35,0,0,1,217.62,500.26Zm1.09,0a2.62,2.62,0,0,0,.52,1.79,1.73,1.73,0,0,0,2.62,0,2.76,2.76,0,0,0,.52-1.82,2.58,2.58,0,0,0-.53-1.75,1.72,1.72,0,0,0-2.61,0A2.61,2.61,0,0,0,218.71,500.26Z" transform="translate(-177.38 -83.87)"/><path d="M224.68,503.38v-6.23h.95v1a2.44,2.44,0,0,1,.67-.88A1.16,1.16,0,0,1,227,497a2,2,0,0,1,1.09.34l-.37,1a1.49,1.49,0,0,0-.77-.23,1,1,0,0,0-.62.21,1.15,1.15,0,0,0-.39.58,4,4,0,0,0-.18,1.23v3.26Z" transform="translate(-177.38 -83.87)"/><path d="M228.69,503.38v-6.23h.94V498a2.19,2.19,0,0,1,1.89-1,2.06,2.06,0,0,1,1.13.29,1.55,1.55,0,0,1,.62.8,2.27,2.27,0,0,1,1.92-1.09,1.91,1.91,0,0,1,1.43.51,2.22,2.22,0,0,1,.5,1.58v4.28h-1.05v-3.92a3.23,3.23,0,0,0-.1-.92.9.9,0,0,0-.38-.44,1.1,1.1,0,0,0-.63-.17,1.47,1.47,0,0,0-1.09.43,1.92,1.92,0,0,0-.43,1.4v3.62h-1.06v-4.05a1.69,1.69,0,0,0-.26-1.05,1,1,0,0,0-.84-.35,1.47,1.47,0,0,0-.82.23,1.32,1.32,0,0,0-.55.69,3.92,3.92,0,0,0-.17,1.3v3.23Z" transform="translate(-177.38 -83.87)"/><path d="M191,517.77V510.2h-2.83v-1H195v1h-2.84v7.57Z" transform="translate(-177.38 -83.87)"/><path d="M195.54,517.77v-6.22h1v.95a2.69,2.69,0,0,1,.67-.88,1.21,1.21,0,0,1,.68-.21,2,2,0,0,1,1.09.34l-.37,1a1.52,1.52,0,0,0-.77-.23,1,1,0,0,0-.62.21,1.11,1.11,0,0,0-.4.58,4.3,4.3,0,0,0-.17,1.23v3.25Z" transform="translate(-177.38 -83.87)"/><path d="M203.61,517a3.91,3.91,0,0,1-1.13.7,3.15,3.15,0,0,1-1.16.21,2.21,2.21,0,0,1-1.57-.51,1.64,1.64,0,0,1-.56-1.28,1.68,1.68,0,0,1,.21-.83,1.79,1.79,0,0,1,.55-.61,2.63,2.63,0,0,1,.76-.34,6.36,6.36,0,0,1,.93-.16,9.44,9.44,0,0,0,1.88-.36c0-.15,0-.24,0-.28a1.17,1.17,0,0,0-.3-.91,1.76,1.76,0,0,0-1.2-.36,1.82,1.82,0,0,0-1.1.27,1.59,1.59,0,0,0-.52.92l-1-.14a2.45,2.45,0,0,1,.46-1.07,2,2,0,0,1,.93-.63,4.09,4.09,0,0,1,1.41-.22,3.64,3.64,0,0,1,1.3.19,1.68,1.68,0,0,1,.73.47,1.6,1.6,0,0,1,.33.72,6.67,6.67,0,0,1,.05,1v1.41a13.75,13.75,0,0,0,.07,1.86,2,2,0,0,0,.27.74h-1.11A2.12,2.12,0,0,1,203.61,517Zm-.09-2.36a7.43,7.43,0,0,1-1.72.4,3.82,3.82,0,0,0-.92.21.87.87,0,0,0-.41.34.89.89,0,0,0-.15.5.91.91,0,0,0,.32.71,1.34,1.34,0,0,0,.93.28,2.18,2.18,0,0,0,1.09-.27,1.57,1.57,0,0,0,.69-.73,2.44,2.44,0,0,0,.17-1.05Z" transform="translate(-177.38 -83.87)"/><path d="M206.23,517.77v-6.22h1v.89a2.21,2.21,0,0,1,2-1,2.66,2.66,0,0,1,1,.2,1.81,1.81,0,0,1,.71.53,2.1,2.1,0,0,1,.32.78,6,6,0,0,1,.06,1v3.82h-1.05V514a2.59,2.59,0,0,0-.13-1,.94.94,0,0,0-.43-.51,1.38,1.38,0,0,0-.74-.19,1.73,1.73,0,0,0-1.16.42,2.12,2.12,0,0,0-.49,1.63v3.39Z" transform="translate(-177.38 -83.87)"/><path d="M212.48,515.92l1-.17a1.44,1.44,0,0,0,.49,1,1.67,1.67,0,0,0,1.12.34,1.62,1.62,0,0,0,1.08-.3.89.89,0,0,0,.35-.69.62.62,0,0,0-.31-.56,4,4,0,0,0-1.08-.36,10.76,10.76,0,0,1-1.61-.51,1.55,1.55,0,0,1-.67-.59,1.53,1.53,0,0,1-.24-.84,1.62,1.62,0,0,1,.71-1.35,2,2,0,0,1,.67-.31,3,3,0,0,1,.91-.13,3.63,3.63,0,0,1,1.29.21,1.77,1.77,0,0,1,.82.57,2.26,2.26,0,0,1,.36,1l-1,.14a1.12,1.12,0,0,0-.41-.75,1.47,1.47,0,0,0-.95-.27,1.75,1.75,0,0,0-1,.24.72.72,0,0,0-.31.56.62.62,0,0,0,.13.37.93.93,0,0,0,.41.28q.15.06.93.27a13.15,13.15,0,0,1,1.56.49,1.5,1.5,0,0,1,1,1.46,1.81,1.81,0,0,1-.31,1,2,2,0,0,1-.89.72,3.22,3.22,0,0,1-1.31.26,2.89,2.89,0,0,1-1.85-.51A2.35,2.35,0,0,1,212.48,515.92Z" transform="translate(-177.38 -83.87)"/><path d="M219.15,517.77v-5.4h-.93v-.82h.93v-.66a3,3,0,0,1,.11-.93,1.35,1.35,0,0,1,.54-.67,1.93,1.93,0,0,1,1.07-.25,5.19,5.19,0,0,1,1,.1l-.16.92a3.44,3.44,0,0,0-.62-.05.91.91,0,0,0-.68.2,1.13,1.13,0,0,0-.2.77v.57h1.21v.82H220.2v5.4Z" transform="translate(-177.38 -83.87)"/><path d="M221.84,514.66a3.22,3.22,0,0,1,1-2.56,2.91,2.91,0,0,1,2-.69,2.82,2.82,0,0,1,2.1.84,3.22,3.22,0,0,1,.81,2.33,4.13,4.13,0,0,1-.36,1.89,2.55,2.55,0,0,1-1.05,1.06,3,3,0,0,1-1.5.39,2.78,2.78,0,0,1-2.11-.84A3.35,3.35,0,0,1,221.84,514.66Zm1.09,0a2.62,2.62,0,0,0,.52,1.79,1.65,1.65,0,0,0,1.31.6,1.67,1.67,0,0,0,1.31-.6,2.76,2.76,0,0,0,.52-1.82,2.58,2.58,0,0,0-.53-1.75,1.72,1.72,0,0,0-2.61,0A2.61,2.61,0,0,0,222.93,514.66Z" transform="translate(-177.38 -83.87)"/><path d="M228.9,517.77v-6.22h.95v.95a2.44,2.44,0,0,1,.67-.88,1.16,1.16,0,0,1,.67-.21,2,2,0,0,1,1.09.34l-.37,1a1.49,1.49,0,0,0-.77-.23,1,1,0,0,0-.62.21,1.09,1.09,0,0,0-.39.58,4,4,0,0,0-.18,1.23v3.25Z" transform="translate(-177.38 -83.87)"/><path d="M232.9,517.77v-6.22h.95v.88a2.19,2.19,0,0,1,1.88-1,2.1,2.1,0,0,1,1.14.29,1.55,1.55,0,0,1,.62.8,2.22,2.22,0,0,1,1.92-1.09,1.91,1.91,0,0,1,1.43.51,2.22,2.22,0,0,1,.5,1.58v4.27h-1.05v-3.92a2.81,2.81,0,0,0-.11-.91.83.83,0,0,0-.37-.44,1.1,1.1,0,0,0-.63-.17,1.47,1.47,0,0,0-1.09.43,1.92,1.92,0,0,0-.43,1.4v3.61H236.6v-4a1.69,1.69,0,0,0-.26-1.05,1,1,0,0,0-.84-.35,1.47,1.47,0,0,0-.82.23,1.27,1.27,0,0,0-.55.69,3.92,3.92,0,0,0-.17,1.3v3.22Z" transform="translate(-177.38 -83.87)"/><path d="M247.16,515.77l1.09.14a2.64,2.64,0,0,1-1,1.48,2.85,2.85,0,0,1-1.78.53,2.8,2.8,0,0,1-2.16-.85,3.24,3.24,0,0,1-.8-2.35,3.44,3.44,0,0,1,.81-2.44,2.73,2.73,0,0,1,2.09-.87,2.63,2.63,0,0,1,2,.85,3.36,3.36,0,0,1,.79,2.39v.28h-4.64a2.36,2.36,0,0,0,.58,1.57,1.71,1.71,0,0,0,1.3.55,1.56,1.56,0,0,0,1-.31A2,2,0,0,0,247.16,515.77Zm-3.46-1.7h3.47a2.11,2.11,0,0,0-.4-1.18,1.59,1.59,0,0,0-1.3-.61,1.67,1.67,0,0,0-1.23.49A1.87,1.87,0,0,0,243.7,514.07Z" transform="translate(-177.38 -83.87)"/><path d="M249.56,517.77v-6.22h.95v.95a2.56,2.56,0,0,1,.67-.88,1.19,1.19,0,0,1,.68-.21,2,2,0,0,1,1.08.34l-.36,1a1.55,1.55,0,0,0-.77-.23,1,1,0,0,0-.62.21,1.11,1.11,0,0,0-.4.58,4.3,4.3,0,0,0-.17,1.23v3.25Z" transform="translate(-177.38 -83.87)"/></svg>
